<?xml version="1.0" standalone="no"?><!DOCTYPE svg PUBLIC "-//W3C//DTD SVG 1.1//EN" "http://www.w3.org/Graphics/SVG/1.1/DTD/svg11.dtd"><svg t="1615809634121" class="icon" viewBox="0 0 1024 1024" version="1.1" xmlns="http://www.w3.org/2000/svg" p-id="30722" xmlns:xlink="http://www.w3.org/1999/xlink" width="120" height="120"><defs><style type="text/css"></style></defs><path d="M336.426667 223.701333h147.114666L650.666667 853.333333h-161.194667l-22.314667-125.013333h-121.173333L322.304 853.333333H170.666667L336.426667 223.701333z m70.613333 171.946667l-40.533333 219.818667h80.128L407.04 395.690667zM775.466667 213.333333c19.712 0 37.632 7.082667 53.76 21.205334 16.042667 14.165333 24.106667 32.512 24.106666 55.04 0 21.376-7.68 39.466667-22.997333 54.186666-15.36 14.762667-33.621333 22.101333-54.869333 22.101334-21.888 0-40.32-7.594667-55.338667-22.784a74.112 74.112 0 0 1-22.528-53.930667c0-21.077333 7.722667-38.954667 23.210667-53.717333 15.488-14.72 33.706667-22.101333 54.613333-22.101334z m-72.874667 209.877334h144.384V853.333333h-144.384V423.210667z" fill="#FF5F3A" p-id="30723"></path></svg>