<?xml version="1.0" standalone="no"?><!DOCTYPE svg PUBLIC "-//W3C//DTD SVG 1.1//EN" "http://www.w3.org/Graphics/SVG/1.1/DTD/svg11.dtd"><svg t="1614339259616" class="icon" viewBox="0 0 1024 1024" version="1.1" xmlns="http://www.w3.org/2000/svg" p-id="4456" xmlns:xlink="http://www.w3.org/1999/xlink" width="120" height="120"><defs><style type="text/css"></style></defs><path d="M296 541.6c0 5.6 4.8 10.4 10.4 10.4h42.4c16 0 28 0.8 35.2-2.4 8.8-4 15.2-8.8 18.4-15.2 4-6.4 5.6-13.6 5.6-21.6 0-8.8-2.4-16-6.4-22.4-4-6.4-12-11.2-21.6-14.4-4-1.6-9.6-2.4-15.2-2.4-5.6-1.6-12.8-1.6-20.8-1.6h-37.6c-5.6 0-10.4 4.8-10.4 10.4v59.2zM397.6 612c-4.8-1.6-10.4-2.4-17.6-3.2s-14.4-0.8-24.8-0.8h-48.8c-5.6 0-10.4 4.8-10.4 10.4v74.4c0 5.6 4.8 10.4 10.4 10.4h30.4c11.2 0 20 0 28-0.8s14.4-1.6 20-3.2c8.8-1.6 16-4 21.6-7.2 5.6-3.2 10.4-6.4 14.4-10.4 3.2-4 6.4-8.8 8-13.6s2.4-9.6 2.4-15.2c0-9.6-2.4-17.6-8-24.8-5.6-6.4-14.4-12-25.6-16z" fill="#47CCAB" p-id="4457"></path><path d="M721.6 29.6L944 232H755.2c-36.8 0-67.2-28.8-67.2-64V0H157.6C120.8 0 80 28.8 80 64v896c0 35.2 40.8 64 77.6 64h707.2c36.8 0 71.2-28.8 79.2-64V232L721.6 29.6zM484 676.8c-2.4 9.6-7.2 18.4-13.6 27.2s-15.2 16.8-25.6 24c-11.2 7.2-24.8 13.6-40.8 17.6-4 0.8-8.8 1.6-13.6 2.4-4.8 0.8-10.4 1.6-16 2.4-5.6 0.8-12.8 0.8-20 1.6h-112c-5.6 0-10.4-4.8-10.4-10.4V426.4c0-5.6 4.8-10.4 10.4-10.4h105.6c24.8 0 44.8 2.4 60 7.2 11.2 4 20.8 8.8 29.6 14.4 8 5.6 15.2 12.8 20.8 20 5.6 7.2 9.6 15.2 12 23.2 2.4 8 4 16 4 24.8 0 14.4-3.2 28-9.6 40-6.4 12-17.6 22.4-32 30.4v0.8c8 3.2 16 6.4 23.2 11.2 7.2 4.8 12.8 9.6 17.6 16 4.8 6.4 8.8 12.8 11.2 20.8 2.4 8 4 16 4 25.6-0.8 8-1.6 16.8-4.8 26.4zM800 461.6c0 5.6-4.8 10.4-10.4 10.4H696v269.6c0 5.6-4.8 10.4-10.4 10.4h-50.4c-5.6 0-10.4-4.8-10.4-10.4V472H530.4c-5.6 0-10.4-4.8-10.4-10.4v-34.4c0-5.6 4.8-10.4 10.4-10.4h258.4c5.6 0 10.4 4.8 10.4 10.4v34.4z" fill="#47CCAB" p-id="4458"></path><path d="M755.2 232h188L720.8 29.6 688 0v168c0 35.2 30.4 64 67.2 64z" fill="#98EFB1" p-id="4459"></path><path d="M472.8 603.2c-4.8-6.4-11.2-11.2-17.6-16-7.2-4.8-14.4-8-23.2-11.2 15.2-8 25.6-18.4 32-30.4 6.4-12 9.6-25.6 9.6-40 0-8-1.6-16-4-24.8-2.4-8-6.4-16-12-23.2-5.6-7.2-12-13.6-20.8-20-8-5.6-18.4-10.4-29.6-14.4-15.2-4.8-35.2-7.2-60-7.2H242.4c-5.6 0-10.4 4.8-10.4 10.4v314.4c0 5.6 4.8 10.4 10.4 10.4h111.2c7.2 0 13.6-0.8 20-1.6 5.6-0.8 11.2-1.6 16-2.4 4.8-0.8 9.6-1.6 13.6-2.4 16.8-4 30.4-10.4 40.8-17.6 11.2-7.2 19.2-15.2 25.6-24s11.2-17.6 13.6-27.2c2.4-9.6 4-18.4 4-26.4 0-9.6-1.6-18.4-4-25.6-1.6-7.2-5.6-14.4-10.4-20.8zM296 482.4c0-5.6 4.8-10.4 10.4-10.4H344c8.8 0 15.2 0 21.6 0.8 5.6 0.8 10.4 1.6 15.2 2.4 10.4 3.2 17.6 8 21.6 14.4s6.4 14.4 6.4 22.4c0 8-1.6 15.2-5.6 21.6-4 6.4-9.6 11.2-18.4 15.2-8 3.2-20 2.4-35.2 2.4h-42.4c-5.6 0-10.4-4.8-10.4-10.4v-58.4z m132 186.4c-1.6 4.8-4 9.6-8 13.6-3.2 4-8 7.2-14.4 10.4-5.6 3.2-12.8 5.6-21.6 7.2-5.6 1.6-12 2.4-20 3.2-8 0.8-16.8 0.8-28 0.8h-30.4c-5.6 0-10.4-4.8-10.4-10.4v-74.4c0-5.6 4.8-10.4 10.4-10.4h48.8c10.4 0 19.2 0 25.6 0.8s12 1.6 17.6 3.2c11.2 3.2 19.2 8.8 24.8 16 5.6 7.2 8 15.2 8 24.8 0 4.8-0.8 10.4-2.4 15.2zM789.6 416H530.4c-5.6 0-10.4 4.8-10.4 10.4v34.4c0 5.6 4.8 10.4 10.4 10.4H624v269.6c0 5.6 4.8 10.4 10.4 10.4h50.4c5.6 0 10.4-4.8 10.4-10.4V472h93.6c5.6 0 10.4-4.8 10.4-10.4v-34.4c0.8-6.4-4-11.2-9.6-11.2z" fill="#FFFFFF" p-id="4460"></path></svg>