<?xml version="1.0" standalone="no"?><!DOCTYPE svg PUBLIC "-//W3C//DTD SVG 1.1//EN" "http://www.w3.org/Graphics/SVG/1.1/DTD/svg11.dtd"><svg t="1615808635946" class="icon" viewBox="0 0 1024 1024" version="1.1" xmlns="http://www.w3.org/2000/svg" p-id="18099" xmlns:xlink="http://www.w3.org/1999/xlink" width="120" height="120"><defs><style type="text/css"></style></defs><path d="M148.8 636.8c37.2-1.6 40.5-8.6 40.5-40.9v-163c0-31.9-3.3-38.9-36.8-40.5v-6.1h119.1c49.5 0 89.2 8.2 114.2 32.3 21.7 20.5 33.2 49.1 33.2 84.7 0 108.5-94.1 139.2-176 139.2h-94.1v-5.7z m61.9-42.2c0 31.5 6.5 38.1 47.5 38.1 100.3 0 133.8-65.1 133.8-119.5 0-46.7-18.8-88.8-57.3-106.8-18.4-7-44.6-11.9-84.3-11.9-20.9 0-32.3 0.4-36 0.8-2 0-3.7 0.4-3.7 7.8v191.5zM734.6 510.7c0 81.5-65.1 137.9-142.8 137.9-74.9 0-135.5-55.3-135.5-131 0-68.8 53.2-137.5 144.5-137.5 68.3 0 133.8 51.2 133.8 130.6z m-249.7-4.9c0 79.8 50.3 133 116.7 133 55.3 0 105.2-38.1 105.2-110.9 0-92.9-52-137.9-117.9-137.9-54.5 0.4-104 36.8-104 115.8zM768.9 636.8c35.6-1.6 38.9-8.6 38.9-40.9v-163c0-31.9-3.3-38.9-38.9-40.9v-5.7H868v5.7c-35.2 2-38.9 9-38.9 40.9v162.9c0 32.3 3.7 39.3 38.9 40.9v5.7h-99.1v-5.6z" fill="#13227a" p-id="18100"></path><path d="M511 4.5C230 4.5 2.3 232.3 2.3 513.3 2.3 794.2 230 1022 511 1022s508.7-227.8 508.7-508.7C1019.7 232.3 792 4.5 511 4.5z m0 974.4c-257.2 0-465.6-208.5-465.6-465.6C45.4 256.1 253.8 47.7 511 47.7c257.1 0 465.6 208.4 465.6 465.6 0 257.1-208.5 465.6-465.6 465.6z" fill="#13227a" p-id="18101"></path></svg>