<?xml version="1.0" standalone="no"?><!DOCTYPE svg PUBLIC "-//W3C//DTD SVG 1.1//EN" "http://www.w3.org/Graphics/SVG/1.1/DTD/svg11.dtd"><svg t="1615807882920" class="icon" viewBox="0 0 1877 1024" version="1.1" xmlns="http://www.w3.org/2000/svg" p-id="2068" xmlns:xlink="http://www.w3.org/1999/xlink" width="219.9609375" height="120"><defs><style type="text/css"></style></defs><path d="M37.12 394.837333l213.632 83.114667v185.813333c-20.394667 8.576-34.730667 27.52-34.730667 49.706667 0 22.656 14.762667 42.069333 35.797334 50.432l-43.818667 181.461333H336.213333l-43.434666-180.48c23.466667-7.168 40.746667-27.093333 40.746666-51.413333 0-24.021333-16.938667-43.904-40.021333-51.242667v-167.68l146.773333 57.173334s261.504-186.752 525.994667-186.752c270.677333 0 467.114667 186.709333 467.114667 186.709333l405.76-151.893333L976.896 1.493333 37.162667 394.88z m1342.293333 199.168s-151.552-134.442667-423.893333-134.442666c-272.256 0-414.848 134.4-414.848 134.4v325.290666s105.130667 104.533333 393.514667 104.533334c288.341333 0 445.269333-104.533333 445.269333-104.533334v-325.248z m-429.226666 370.048c-188.714667 0-341.76-35.669333-341.76-79.658666 0-43.989333 153.045333-79.658667 341.76-79.658667s341.76 35.669333 341.76 79.658667c0 43.989333-153.045333 79.658667-341.76 79.658666z" fill="#1296db" p-id="2069"></path></svg>