<?xml version="1.0" standalone="no"?><!DOCTYPE svg PUBLIC "-//W3C//DTD SVG 1.1//EN" "http://www.w3.org/Graphics/SVG/1.1/DTD/svg11.dtd"><svg t="1615909349186" class="icon" viewBox="0 0 1024 1024" version="1.1" xmlns="http://www.w3.org/2000/svg" p-id="2052" xmlns:xlink="http://www.w3.org/1999/xlink" width="120" height="120"><defs><style type="text/css"></style></defs><path d="M324.1576 255.306c-79.88 49.512-148.767 111.529-205.863 186.959l-5.918-3.323c9.656-28.747 16.646-58.736 29.398-86.037C224.7626 175.22 365.0456 82.562 560.9486 73.403c14.898-0.696 30.456-3.695 44.229-9.272 65.518-26.538 132.816-47.369 203.245-52.703 35.526-2.688 73.463-1.044 107.412 8.719 74.907 21.539 110.926 91.356 94.048 175.8-7.248 36.261-21.162 71.146-30.115 107.134-2.798 11.251-2.708 25.608 1.908 35.929 33.051 73.877 46.359 150.716 41.279 231.42-1.25 19.892-7.608 25.319-27.294 25.248-198.762-0.71-397.523-0.434-596.288-0.434h-32.014c1.326 11.877 1.42 22.046 3.7 31.701 19.626 83.166 70.764 137.801 153.672 157.121 85.066 19.823 156.649-7.607 209.987-76.833 11.935-15.486 23.235-20.699 41.804-20.412 64.624 0.999 129.271 0.386 193.909 0.386h27.146c-4.966 12.785-8.317 22.507-12.441 31.881-100.992 229.491-367.867 335.967-599.128 238.183-18.424-7.793-32.26-6.581-49.677 1.563-59.229 27.687-118.39 55.596-186.472 54.881-103.341-1.08-158.937-60.979-148.64-164.292 11.015-110.518 50.513-211.497 106.49-306.539 56.902-96.616 128.052-182.288 203.837-264.365 5.823-6.309 11.592-12.667 17.387-19.001a4942.036 4942.036 0 0 0-4.775-4.212z m448.7 201.763c-13.857-107.434-107.224-182.476-215.867-176.43-95.388 5.31-183.79 88.501-185.83 176.43h401.697zM329.0956 929.415c-91.456-57.604-153.201-131.818-193.204-226.197-37.633 57.475-56.552 126.396-50.26 177.859 8.316 68.037 66.044 109.865 131.911 91.747 36.095-9.928 70.215-27.038 111.553-43.409z m628.137-635.612c9.09-34.014 17.772-60.985 23.369-88.581 10.737-52.936-9.313-99.926-49.678-121.069-45.861-24.024-148.123-10.609-188.242 25.343 88.65 38.31 158.828 98.331 214.551 184.307z" p-id="2053" fill="#1296db"></path></svg>