<?xml version="1.0" standalone="no"?><!DOCTYPE svg PUBLIC "-//W3C//DTD SVG 1.1//EN" "http://www.w3.org/Graphics/SVG/1.1/DTD/svg11.dtd"><svg t="1615910765654" class="icon" viewBox="0 0 1024 1024" version="1.1" xmlns="http://www.w3.org/2000/svg" p-id="5706" xmlns:xlink="http://www.w3.org/1999/xlink" width="120" height="120"><defs><style type="text/css"></style></defs><path d="M512 535.512918m-488.487082 0a488.487082 488.487082 0 1 0 976.974164 0 488.487082 488.487082 0 1 0-976.974164 0Z" fill="#F7CD1A" p-id="5707"></path><path d="M292.900741 830.222345a203.353051 163.278243 0 1 0 406.706103 0 203.353051 163.278243 0 1 0-406.706103 0Z" fill="#00C413" p-id="5708"></path><path d="M682.016485 797.382282L352.977488 177.605874l24.257672-5.319665 304.781325 591.475791v33.620282z" fill="#00C413" p-id="5709"></path><path d="M352.977488 178.173305s92.207522-133.062548 182.570895-98.094618S729.680682 0 729.680682 0s52.274572 216.262104-298.681444 312.086999l-78.02175-133.913694" fill="#00C413" p-id="5710"></path></svg>