<?xml version="1.0" standalone="no"?><!DOCTYPE svg PUBLIC "-//W3C//DTD SVG 1.1//EN" "http://www.w3.org/Graphics/SVG/1.1/DTD/svg11.dtd"><svg t="1615800664674" class="icon" viewBox="0 0 1024 1024" version="1.1" xmlns="http://www.w3.org/2000/svg" p-id="10924" xmlns:xlink="http://www.w3.org/1999/xlink" width="120" height="120"><defs><style type="text/css"></style></defs><path d="M512 512H0A512 512 0 1 0 512 0 512 512 0 0 0 0 512z" fill="#2264E9" p-id="10925"></path><path d="M691.2 476.3904H332.8v206.1312h0.3584v1.3056c0 46.2848 80.0512 83.8656 178.8928 83.8656s179.0208-37.6064 179.0208-83.8656a4.9408 4.9408 0 0 0 0-1.3056h0.3584z" fill="#FFFFFF" opacity=".8" p-id="10926"></path><path d="M442.0352 276.5568l-221.2608 136.7296a33.6896 33.6896 0 0 0 0 57.3184l221.2608 136.6016a128.5888 128.5888 0 0 0 135.2704 0l221.1328-136.6016a33.6896 33.6896 0 0 0 0-57.3184l-221.2608-136.7296a128.3584 128.3584 0 0 0-135.1424 0z" fill="#FFFFFF" p-id="10927"></path><path d="M716.8 460.8h51.2v128a25.6 25.6 0 0 1-25.6 25.6 25.6 25.6 0 0 1-25.6-25.6v-128z" fill="#FFFFFF" opacity=".8" p-id="10928"></path></svg>