<?xml version="1.0" standalone="no"?><!DOCTYPE svg PUBLIC "-//W3C//DTD SVG 1.1//EN" "http://www.w3.org/Graphics/SVG/1.1/DTD/svg11.dtd"><svg t="1615809887504" class="icon" viewBox="0 0 1024 1024" version="1.1" xmlns="http://www.w3.org/2000/svg" p-id="37438" xmlns:xlink="http://www.w3.org/1999/xlink" width="120" height="120"><defs><style type="text/css"></style></defs><path d="M0 0h1024v1024H0V0z" fill="#99CC66" p-id="37439"></path><path d="M16.0768 366.1312c-0.2048 15.36-0.6656 30.4128-1.28 45.056 3.9936 1.6384 9.2672 3.9936 15.4112 7.0144 0 0 2.5088 0.8704 4.9152 2.4576 1.792 1.2288 33.536 131.584 75.264 309.0944 9.8816 31.0784 19.712 62.208 29.5936 93.2864 14.0288 0.3584 28.0576 0.768 42.0864 1.1264 14.2848-0.6656 28.5696-1.3312 42.9056-1.9456 1.4848-22.4256 4.5568-55.808 11.7248-95.8976 7.3216-40.8576 17.2544-96.3584 29.5936-96.512 4.864-0.0512 15.616 8.2944 29.5424 96.512 7.5264 31.9488 15.104 63.8976 22.6304 95.8976 15.5648 0.6656 31.1808 1.3312 46.7456 1.9456 12.4928 0.3584 25.0368 0.768 37.5296 1.1264 7.5776-31.3344 15.2064-62.6176 22.784-93.952 73.5232-306.5856 73.5232-307.5072 88.2688-313.1904 12.3392-4.7104 14.1312-11.3664 14.1312-52.0192v-46.3872l-142.2336-0.768c3.0208 20.3776 3.5328 37.0688 3.4304 48.9472-0.2048 19.0976-2.2528 45.5168-2.2528 45.5168 9.8304-1.024 21.4016-0.3072 29.5936 6.8096 4.3008 3.7376 15.104 15.8208-2.2528 102.4-7.6288 37.9904-15.2576 63.3856-19.3536 76.2368-16.1792 51.1488-24.2688 76.6976-34.1504 77.3632-23.7056 1.5872-44.288-101.7344-53.4528-145.6128-12.8-61.2352-10.8032-89.9584 6.1952-105.1136 8.2432-7.3728 18.176-9.9328 25.6512-10.9056v-46.6432c0.3584-16.0768 0.768-32.1024 1.1264-48.1792H204.3904c0.3584 13.4656 0.4096 27.648 0 42.4448-0.4608 17.2032-1.536 33.536-2.9696 48.9472 7.6288 3.0208 18.3296 8.6016 26.1632 19.3536 9.8304 13.4144 12.032 30.5152 2.2528 85.3504-5.7856 32.6656-10.496 58.4704-23.9104 98.9696-17.5616 53.248-26.368 79.872-36.4032 79.6672-12.8-0.3072-11.3152-38.7584-39.8336-162.7136-8.704-37.7344-18.1248-74.752 2.048-105.4208 7.1168-10.8544 15.9744-17.8688 22.528-22.2208-0.8704-10.3936-1.536-21.3504-1.8432-32.768-0.4608-18.3808 0.0512-35.6352 1.1264-51.5584H16.0256c0.256 15.0016 0.3072 30.464 0.0512 46.2848z" p-id="37440"></path><path d="M806.912 137.216v49.152c5.5296 0.9216 19.968 4.0448 32.768 16.384 10.7008 10.3424 14.7968 21.8624 16.384 27.2896V432.128h-196.608V230.0416a61.6448 61.6448 0 0 1 16.384-27.2896c12.8-12.3392 27.2384-15.4624 32.768-16.384V131.7376H512v65.536c6.2464 1.1264 16.4864 3.8912 27.2896 10.9056 11.4688 7.4752 18.2784 16.4352 21.8624 21.8624V727.04c-0.7168 4.864-3.4304 19.8144-16.384 32.768-3.4304 3.4304-14.6944 13.824-32.768 16.384v49.152h196.608v-54.6304c-3.3792 0.1536-19.0464 0.7168-32.768-10.9056-14.848-12.544-16.2304-29.7472-16.384-32.768v-196.608h196.608V727.04a81.92 81.92 0 0 1-16.384 27.2896 81.78688 81.78688 0 0 1-32.768 21.8624v49.152H1003.52v-49.152c-4.864-0.7168-19.8144-3.4304-32.768-16.384-3.4304-3.4304-13.824-14.6944-16.384-32.768 1.792-163.84 3.6352-327.68 5.4784-491.52 0.7168-5.5808 2.9184-16.4864 10.9056-27.2896 11.6224-15.6672 27.6992-20.5312 32.768-21.8624v-49.152h-196.608z" fill="#FFFFFF" p-id="37441"></path></svg>