<?xml version="1.0" standalone="no"?><!DOCTYPE svg PUBLIC "-//W3C//DTD SVG 1.1//EN" "http://www.w3.org/Graphics/SVG/1.1/DTD/svg11.dtd"><svg t="1615807164332" class="icon" viewBox="0 0 1024 1024" version="1.1" xmlns="http://www.w3.org/2000/svg" p-id="13045" xmlns:xlink="http://www.w3.org/1999/xlink" width="120" height="120"><defs><style type="text/css"></style></defs><path d="M491.84 85.568c-3.648-4.896-5.568 0-5.568 0l-106.176 872.032L494.72 960l-2.88-874.432zM303.072 777.856l-8.064-52.608-28.128 43.104-56.96-1.696 36.224 38.08-22.752 50.176 50.912-25.888 38.08 36.256-2.624-54.528 49.536-22.4-56.256-10.432 0.032-0.064z m99.008-324.352l-57.6 18.112-26.72-50.88-17.408 72.608-61.632 31.936 48.896 11.264-11.36 73.568 47.52-61.472 56.256 17.408-20.096-57.184 42.144-55.36zM137.6 575.456l-32.064 43.264L64 625.6l25.376 27.712-23.36 47.584 41.504-32.832 29.344 28.576 2.048-45.824 36.192-29.408-38.144-1.792 0.64-44.16z m76.416-149.568l18.72-23.392-24.096 6.08-12.736-22.528-11.456 34.624-31.36 15.552 21.408 5.248-5.344 31.104 25.408-28.512 25.44 9.44-5.984-27.616z m109.76-122.816l12.096 6.976 5.376-17.408 18.656-14.72-14.688-2.56v-13.856l-15.424 18.24-20.768 3.488 7.36 13.728-12.736 18.176 20.128-12.064z m521.76-128.768s-89.344-57.088-258.432-17.024c0 0 216.064-20.608 270.592 144.544 0 0 37.632 167.552-91.104 296.32 0 0-93.088 103.296-155.168 128.736L528.768 67.52s-6.56-10.88-6.56 6.112v876.8s100.544-35.2 109.92-52.288l-13.152-109.248s276.32-138.496 332.672-367.968c0 0 52.608-168.832-106.144-246.528v-0.064z" fill="#B19C4A" p-id="13046"></path></svg>