<?xml version="1.0" standalone="no"?><!DOCTYPE svg PUBLIC "-//W3C//DTD SVG 1.1//EN" "http://www.w3.org/Graphics/SVG/1.1/DTD/svg11.dtd"><svg t="1615911205039" class="icon" viewBox="0 0 1024 1024" version="1.1" xmlns="http://www.w3.org/2000/svg" p-id="10775" xmlns:xlink="http://www.w3.org/1999/xlink" width="120" height="120"><defs><style type="text/css"></style></defs><path d="M512 0c282.4 0 512 229.6 512 512s-229.6 512-512 512S0 794.4 0 512 229.6 0 512 0z m82.4 642.4c-4.8 1.6-9.6 4-13.6 4.8-20.8 5.6-41.6 2.4-62.4-0.8-4-0.8-6.4 0-8.8 4l-38.4 67.2c-2.4 4-6.4 6.4-10.4 8-15.2 4.8-28.8-3.2-32.8-19.2l-2.4-9.6c-3.2 8-4 17.6-0.8 26.4 4.8 14.4 16.8 19.2 29.6 23.2-13.6 24-27.2 47.2-40.8 71.2 11.2 2.4 13.6 1.6 20.8-5.6 10.4-12 20.8-24 32-35.2 6.4-6.4 12.8-12 19.2-17.6 3.2-2.4 6.4-3.2 12-6.4-0.8 22.4-1.6 44-2.4 65.6 4 0 7.2-0.8 10.4 0 5.6 0.8 7.2-1.6 8.8-7.2 3.2-12.8 7.2-25.6 12-37.6 3.2-8 8-16 13.6-23.2 5.6-7.2 13.6-6.4 19.2 1.6 3.2 4.8 6.4 10.4 8 16 4 14.4 7.2 29.6 11.2 44.8 0 1.6 2.4 4 4 4 4.8 0.8 10.4 0 15.2 0-3.2-57.6-3.2-116-3.2-174.4z m76-379.2c-29.6-0.8-58.4 0-87.2 2.4-24.8 1.6-48.8 5.6-72.8 10.4-52 11.2-100.8 30.4-148.8 52.8-30.4 14.4-60.8 30.4-84.8 55.2-7.2 7.2-13.6 15.2-20 22.4-11.2-6.4-21.6-12.8-32.8-19.2-7.2-4-14.4-7.2-21.6-9.6-10.4-3.2-20.8 2.4-25.6 12-2.4 5.6-4.8 12-6.4 18.4-8.8 33.6-19.2 66.4-36.8 96.8-7.2 12-11.2 26.4-15.2 40-6.4 24 13.6 44 37.6 38.4 20-4.8 39.2-14.4 56-26.4 22.4-16 32.8-38.4 32-66.4-0.8-15.2-2.4-29.6-3.2-44.8 5.6 1.6 8 6.4 9.6 12.8 2.4 8.8 5.6 16.8 9.6 24 11.2 20 26.4 35.2 43.2 49.6 53.6 46.4 115.2 76 183.2 92.8 40 10.4 80.8 12 121.6 0 64-19.2 114.4-57.6 153.6-111.2 5.6-8 11.2-16.8 16.8-24.8-4 0.8-6.4 2.4-8.8 3.2-2.4 1.6-5.6 2.4-8.8 3.2-50.4 17.6-102.4 17.6-153.6 5.6-43.2-10.4-80-32.8-110.4-66.4-2.4-2.4-4.8-5.6-5.6-9.6-0.8-3.2 0.8-8 2.4-9.6 1.6-1.6 6.4 0 9.6 0.8 2.4 1.6 4.8 4 6.4 6.4 20.8 21.6 44 40.8 72 51.2 46.4 17.6 97.6 21.6 146.4 12 17.6-3.2 35.2-8 50.4-17.6 6.4-4 13.6-8.8 16-15.2 10.4-24 20.8-48.8 23.2-74.4 1.6-15.2 2.4-32 0-47.2-3.2-21.6-19.2-35.2-37.6-44.8-34.4-16.8-72-22.4-109.6-23.2z m-164.8 69.6c11.2 0 20 8.8 20 18.4 0 10.4-8.8 18.4-20 18.4s-20-8-20-18.4c0-10.4 8.8-18.4 20-18.4zM731.2 280c15.2 0 29.6 1.6 43.2 8 5.6 2.4 11.2 5.6 12 12.8 0 7.2-4 13.6-11.2 16-9.6 4-19.2 6.4-28.8 8-19.2 2.4-38.4 4-57.6-1.6-4-0.8-8-2.4-12-4.8-9.6-5.6-10.4-16-1.6-22.4 9.6-8 20.8-12 32.8-14.4 8 0 16-0.8 23.2-1.6z" fill="#F53415" p-id="10776"></path></svg>