<?xml version="1.0" standalone="no"?><!DOCTYPE svg PUBLIC "-//W3C//DTD SVG 1.1//EN" "http://www.w3.org/Graphics/SVG/1.1/DTD/svg11.dtd"><svg t="1615812248180" class="icon" viewBox="0 0 1024 1024" version="1.1" xmlns="http://www.w3.org/2000/svg" p-id="52356" xmlns:xlink="http://www.w3.org/1999/xlink" width="120" height="120"><defs><style type="text/css"></style></defs><path d="M0 0h1024v560c-28.8-18.773333-67.413333-53.12-100.053333-20.48-35.84 26.026667-75.946667 85.76-124.16 44.8-61.653333-37.333333 24.106667-120.32-34.133334-157.653333-42.026667-46.506667-107.946667-5.12-122.026666 45.44-28.8 49.92-51.413333 146.986667-128.853334 121.386666-120.32-74.026667 98.773333-197.12 7.466667-281.6-25.813333-21.12-72.746667-19.413333-91.52 10.666667-55.893333 77.44-86.613333 169.6-138.88 249.173333-17.706667 29.653333-62.72 34.56-88.32 13.226667-56.106667-37.12 13.866667-114.346667-34.773333-155.733333-35.84-32-98.773333-14.506667-111.786667 31.786666-51.84 112 35.2 249.6 154.666667 262.613334 66.773333 14.08 127.573333-20.906667 181.12-55.68 84.693333 76.586667 212.48 72.106667 298.24-0.426667 98.56 93.226667 274.773333 68.48 333.013333-57.813333V1024H0V0z" fill="#009FEC" p-id="52357"></path><path d="M430.72 322.56c18.773333-30.08 65.706667-31.786667 91.52-10.666667 91.306667 84.48-127.786667 207.573333-7.466667 281.6 77.44 25.6 100.053333-71.466667 128.853334-121.386666 14.08-50.56 80-91.946667 122.026666-45.44 58.24 37.333333-27.52 120.32 34.133334 157.653333 48.213333 40.96 88.32-18.773333 124.16-44.8 32.64-32.64 71.253333 1.706667 100.053333 20.48v49.706667c-58.24 126.293333-234.453333 151.04-333.013333 57.813333-85.76 72.533333-213.546667 77.013333-298.24 0.426667-53.546667 34.773333-114.346667 69.76-181.12 55.68-119.466667-13.013333-206.506667-150.613333-154.666667-262.613334 13.013333-46.293333 75.946667-63.786667 111.786667-31.786666 48.64 41.386667-21.333333 118.613333 34.773333 155.733333 25.6 21.333333 70.613333 16.426667 88.32-13.226667 52.266667-79.573333 82.986667-171.733333 138.88-249.173333z" fill="#FFFFFF" p-id="52358"></path></svg>