<?xml version="1.0" standalone="no"?><!DOCTYPE svg PUBLIC "-//W3C//DTD SVG 1.1//EN" "http://www.w3.org/Graphics/SVG/1.1/DTD/svg11.dtd"><svg t="1614338118208" class="icon" viewBox="0 0 1024 1024" version="1.1" xmlns="http://www.w3.org/2000/svg" p-id="1182" xmlns:xlink="http://www.w3.org/1999/xlink" width="120" height="120"><defs><style type="text/css"></style></defs><path d="M441.936842 5.389474c51.2-8.084211 105.094737-5.389474 158.989474 2.694737 99.705263 18.863158 191.326316 64.673684 264.08421 134.736842 67.368421 61.978947 113.178947 145.515789 137.431579 231.747368 26.947368 91.621053 24.252632 191.326316-2.694737 282.947368-10.778947 37.726316-26.947368 75.452632-45.810526 107.789474-5.389474 10.778947-13.473684 21.557895-21.557895 32.336842 2.694737-8.084211 5.389474-13.473684 8.084211-21.557894 5.389474-18.863158 2.694737-37.726316-5.389474-53.894737-8.084211-18.863158-26.947368-35.031579-45.810526-43.11579-21.557895-8.084211-45.810526-5.389474-64.673684 5.389474-8.084211 2.694737-13.473684 10.778947-21.557895 16.168421 29.642105-45.810526 48.505263-97.010526 53.894737-150.905263 8.084211-59.284211-2.694737-121.263158-24.252632-177.852632-21.557895-48.505263-53.894737-94.315789-91.621052-126.652631-37.726316-35.031579-86.231579-59.284211-134.736843-72.757895-61.978947-16.168421-126.652632-16.168421-188.631578 0-35.031579 10.778947-70.063158 26.947368-102.4 45.810526-35.031579 24.252632-64.673684 53.894737-88.926316 86.231579 2.694737-8.084211 5.389474-16.168421 5.389473-24.252631 2.694737-24.252632-8.084211-48.505263-24.252631-64.673685-13.473684-8.084211-32.336842-16.168421-51.2-16.168421-18.863158-2.694737-40.421053 2.694737-56.589474 16.168421l-10.778947 10.778948c24.252632-37.726316 53.894737-70.063158 86.231579-99.705263 75.452632-64.673684 169.768421-107.789474 266.778947-121.263158zM51.2 293.726316c8.084211-16.168421 16.168421-32.336842 24.252632-45.810527 0 8.084211-2.694737 13.473684-5.389474 21.557895-2.694737 24.252632 5.389474 48.505263 21.557895 67.368421 10.778947 13.473684 26.947368 21.557895 43.115789 24.252632 21.557895 2.694737 43.115789 0 61.978947-13.473684 2.694737-2.694737 8.084211-5.389474 10.778948-8.084211-10.778947 16.168421-18.863158 35.031579-24.252632 53.894737-24.252632 64.673684-29.642105 137.431579-10.778947 204.8 10.778947 45.810526 32.336842 88.926316 59.28421 126.652632 35.031579 45.810526 78.147368 80.842105 129.347369 105.094736 53.894737 26.947368 113.178947 37.726316 172.463158 32.336842 51.2-2.694737 102.4-18.863158 148.210526-45.810526 40.421053-21.557895 75.452632-53.894737 105.094737-91.621052 0 5.389474-2.694737 10.778947-2.694737 16.168421-2.694737 16.168421-2.694737 32.336842 2.694737 48.505263 8.084211 21.557895 26.947368 37.726316 48.505263 45.810526 26.947368 10.778947 61.978947 2.694737 83.536842-18.863158 2.694737-2.694737 5.389474-2.694737 8.084211-5.389474-40.421053 56.589474-91.621053 105.094737-150.905263 140.126316-67.368421 40.421053-142.821053 64.673684-220.968422 70.063158-48.505263 2.694737-97.010526 0-145.515789-8.08421-99.705263-21.557895-194.021053-72.757895-266.778947-145.51579-67.368421-70.063158-113.178947-158.989474-132.042106-253.305263-10.778947-53.894737-13.473684-105.094737-8.08421-156.294737 8.084211-56.589474 24.252632-113.178947 48.505263-164.378947z" fill="#38CEFF" p-id="1183"></path><path d="M99.705263 215.578947c16.168421-13.473684 37.726316-21.557895 59.284211-18.863158 18.863158 2.694737 37.726316 10.778947 48.505263 24.252632 16.168421 16.168421 26.947368 40.421053 24.252631 64.673684 0 8.084211-2.694737 16.168421-5.389473 24.252632-5.389474 10.778947-10.778947 18.863158-18.863158 26.947368-2.694737 2.694737-8.084211 5.389474-10.778948 8.084211-16.168421 13.473684-40.421053 18.863158-61.978947 13.473684-16.168421-2.694737-32.336842-10.778947-43.115789-24.252632-16.168421-16.168421-24.252632-43.115789-21.557895-67.368421 0-8.084211 2.694737-13.473684 5.389474-21.557894 2.694737-8.084211 8.084211-13.473684 13.473684-18.863158l10.778947-10.778948z m727.578948 471.578948c18.863158-10.778947 43.115789-10.778947 64.673684-5.389474 21.557895 8.084211 37.726316 21.557895 45.810526 43.11579 8.084211 16.168421 8.084211 35.031579 5.389474 53.894736-2.694737 8.084211-5.389474 13.473684-8.084211 21.557895-2.694737 2.694737-5.389474 8.084211-8.08421 10.778947-2.694737 2.694737-5.389474 2.694737-8.084211 5.389474-21.557895 21.557895-53.894737 29.642105-83.536842 18.863158-21.557895-8.084211-40.421053-24.252632-48.505263-45.810526-5.389474-16.168421-8.084211-32.336842-2.694737-48.505263 2.694737-5.389474 2.694737-10.778947 2.694737-16.168421l16.168421-24.252632c8.084211-2.694737 16.168421-10.778947 24.252632-13.473684z" fill="#0B99FF" p-id="1184"></path><path d="M363.789474 282.947368c21.557895-18.863158 51.2-24.252632 78.147368-13.473684 10.778947 2.694737 21.557895 10.778947 32.336842 18.863158 67.368421 45.810526 132.042105 88.926316 199.410527 132.042105 10.778947 8.084211 21.557895 16.168421 32.336842 21.557895 16.168421 8.084211 29.642105 24.252632 35.031579 40.421053 5.389474 16.168421 8.084211 37.726316 0 53.894737-5.389474 16.168421-18.863158 32.336842-32.336843 40.421052-16.168421 8.084211-29.642105 18.863158-43.115789 26.947369-67.368421 45.810526-137.431579 91.621053-204.8 137.431579-16.168421 10.778947-37.726316 16.168421-56.589474 13.473684-21.557895-2.694737-40.421053-16.168421-51.2-32.336842-13.473684-18.863158-16.168421-40.421053-10.778947-61.978948 5.389474-18.863158 16.168421-37.726316 32.336842-48.505263 51.2-35.031579 102.4-67.368421 153.6-102.4-45.810526-32.336842-94.315789-61.978947-140.126316-94.315789-5.389474-5.389474-13.473684-8.084211-18.863158-13.473685-16.168421-13.473684-26.947368-32.336842-29.642105-53.894736-5.389474-21.557895 5.389474-48.505263 24.252632-64.673685z" fill="#FF4A4A" p-id="1185"></path></svg>