<?xml version="1.0" standalone="no"?><!DOCTYPE svg PUBLIC "-//W3C//DTD SVG 1.1//EN" "http://www.w3.org/Graphics/SVG/1.1/DTD/svg11.dtd"><svg t="1615910659432" class="icon" viewBox="0 0 1024 1024" version="1.1" xmlns="http://www.w3.org/2000/svg" p-id="4154" xmlns:xlink="http://www.w3.org/1999/xlink" width="120" height="120"><defs><style type="text/css"></style></defs><path d="M503.43218421 6.90529587a437.12382156 437.12382156 0 0 0-37.06242234 1.70206475c-19.36947739 1.73610541-32.59450699 3.21689978-45.35146836 5.4295793-12.74845303 2.22119275-25.02032709 5.17427067-42.46647181 9.84643485a468.04179615 468.04179615 0 0 0-85.98822356 32.33919843 473.13947475 473.13947475 0 0 0-52.60225596 30.24565997 477.41165451 477.41165451 0 0 0-48.18540519 36.5518027 480.90088198 480.90088198 0 0 0-62.77208322 65.47836327 482.8752769 482.8752769 0 0 0-74.63546197 132.98218374c-3.57433281 9.70175902-6.85931389 19.57372379-9.82090503 29.56483453-2.49352289 8.43372186-4.76577539 16.98658969-6.78272178 25.64157952a490.50902733 490.50902733 0 0 0-11.7442328 79.92887861 505.25740521 505.25740521 0 0 0 1.36164836 81.48626506c0.89358257 8.99540375 2.04247625 17.95676435 3.42114864 26.85855447 1.53185654 9.87196475 3.88921439 20.97792603 6.83378152 32.64556924 2.95308037 11.67615151 6.51039161 23.91398484 10.4591765 36.10926678a594.70081557 594.70081557 0 0 0 12.83355593 35.74332301 403.95912438 403.95912438 0 0 0 13.97393879 31.54773779 474.63729065 474.63729065 0 0 0 15.42920081 28.31381896 486.86661323 486.86661323 0 0 0 36.4241484 53.36818418 494.70461255 494.70461255 0 0 0 42.96858069 48.01519954 478.53501583 478.53501583 0 0 0 23.59059249 21.61620003 462.19521088 462.19521088 0 0 0 24.82458899 19.82903242c8.45925421 6.29763197 17.10573319 12.25485248 25.9053989 17.87166145a536.29452335 536.29452335 0 0 0 24.51821818 14.6632725 645.48186566 645.48186566 0 0 0 25.20755191 13.50587057c7.98267517 4.04239855 15.26750583 7.48056626 21.05452062 9.91451868 5.78701478 2.43394992 10.06770286 3.85517375 12.05060606 3.86368204 0.64678475 0 2.46799057-2.33182547 4.87641067-6.11040713 2.40842004-3.77006841 5.3955386-8.9783822 8.39968118-14.70582396a614.52985043 614.52985043 0 0 1 16.48448078-28.95209045 1250.93120951 1250.93120951 0 0 1 20.70559589-33.27533244c7.02951957-10.91873398 13.89734423-21.19919401 19.72691045-29.50526153s10.62087393-14.63774266 13.51437888-17.63337449c1.57440797-1.63398097 2.86797502-3.67645723 2.86797745-4.5274859 0-0.85103115 2.3148064-4.06793093 5.14874082-7.14866556 2.82542361-3.08924549 6.62953511-7.73587733 8.44223265-10.33152222 3.82964142-5.48064396 15.96535037-20.20348701 34.25401782-41.59841906 7.12313326-8.33159743 12.95269943-15.67600112 12.95269947-16.32278587 0-0.64678475-3.29349183-1.84673814-7.31887131-2.65521791a198.31587111 198.31587111 0 0 1-19.57372379-5.04661632 221.25968133 221.25968133 0 0 1-19.43756118-7.09760336 239.88876031 239.88876031 0 0 1-19.0631041-8.97838219 251.96489876 251.96489876 0 0 1-35.99863411-22.99487245 251.3947061 251.3947061 0 0 1-16.43341854-13.70160612 239.24197559 239.24197559 0 0 1-15.08027858-14.96113506 220.9703296 220.9703296 0 0 1-13.45480832-16.05896396 204.81775195 204.81775195 0 0 1-15.59940653-24.18631504 279.1468431 279.1468431 0 0 1-13.488849-27.91383199 273.92151026 273.92151026 0 0 1-10.28897077-29.05421736 192.6735322 192.6735322 0 0 1-5.99977197-27.55639896c-0.76592829-5.66786879-1.21697495-13.19098898-1.39569147-21.53109716a467.30140025 467.30140025 0 0 1 0.2127572-26.43303766c0.31488158-8.93583076 0.86805269-17.65890433 1.61695939-25.12245149 0.74890671-7.4635472 1.70206227-13.66756554 2.79989372-17.58230981 2.42543916-8.60392762 7.24227925-21.64173238 12.40803913-34.13487434s10.67193616-24.45013441 14.46753694-30.89244473a228.79982058 228.79982058 0 0 1 17.471677-25.53094428 234.55279222 234.55279222 0 0 1 20.60347143-22.8757264c7.35291197-7.14866559 15.14835983-13.82075215 23.34379473-19.96519996a243.56521755 243.56521755 0 0 1 53.3426543-30.36480349 243.29288739 243.29288739 0 0 1 29.21591229-9.95706763c9.95706763-2.68925852 20.10136506-4.76577539 30.38182504-6.16146934a235.53998846 235.53998846 0 0 1 31.17328323-2.16161975 243.65032041 243.65032041 0 0 1 27.62448272 1.45526445 220.97884041 220.97884041 0 0 1 52.44907177 12.4080391 255.05414174 255.05414174 0 0 1 25.760723 11.1740426 251.3861953 251.3861953 0 0 1 24.33950169 13.70160862c7.47205551 4.82534841 14.45902611 10.03366217 21.39493205 15.99939101a256.92641221 256.92641221 0 0 1 21.0885613 20.56092248 538.63485962 538.63485962 0 0 1 23.42889751 27.40321481c1.81269748 2.2552334 4.22962587 6.06785572 6.89335453 10.77405813 2.68075022 4.70620486 5.61680907 10.29748159 8.49329484 16.11002622 2.86797502 5.81254462 5.66786879 11.84635971 8.07628886 17.42061478 2.39990927 5.57425511 4.39983407 10.69746602 5.66786873 14.68880486a271.59819553 271.59819553 0 0 1 11.8463597 60.93385341c0.78294982 10.15280573 0.96166635 20.16944635 0.51061719 29.85418622a195.43938531 195.43938531 0 0 1-3.19136741 27.87128306 278.28730118 278.28730118 0 0 1-5.3870303 23.10550515c-2.08502767 7.40397419-4.5189776 14.58668044-7.44652563 21.76938423a207.43892919 207.43892919 0 0 1-10.43364418 21.76938666 279.75958725 279.75958725 0 0 1-14.33137184 23.1225267c-5.53170369 8.07628881-11.85486801 16.59511355-19.14820943 25.78625291-7.27631989 9.19113935-15.51430365 19.06310658-24.85862965 29.8201456a1753.22702351 1753.22702351 0 0 1-31.52220793 35.16462203c-11.71019459 12.76547213-24.67991316 26.63728651-39.06234471 41.85372769a9109.39016498 9109.39016498 0 0 1-38.42407323 40.49207931c-4.98704586 5.07214871-17.59933132 19.5481939-30.63713362 34.9263325-13.02078321 15.38664938-26.4840999 31.68390287-33.19022956 40.40697643a521.90358092 521.90358092 0 0 0-18.68865199 26.02454243 588.78614649 588.78614649 0 0 0-17.55677991 27.70107728 545.70693061 545.70693061 0 0 0-15.57387668 27.93936437 410.92907343 410.92907343 0 0 0-12.72292071 26.71387861c-2.7062801 6.30614277-6.60400525 16.68021642-9.82941332 25.81178518-3.22541054 9.14007717-5.76999321 17.04616023-5.76999319 18.41632185 0 0.48508735 0.04255141 0.83401203 0.45955744 0.91911494 0.41700604 0.08510287 1.20846418-0.08510287 2.70628009-0.66380634 2.98712102-1.14038288 8.80817644-3.83815218 20.08434347-9.11454727 6.67208658-3.12328611 13.67607626-5.87211763 21.10558036-8.27202441 7.44652563-2.38288769 15.32707636-4.42536393 23.76080069-6.0933856 8.43372186-1.66802164 17.42061483-2.97861023 27.07131162-3.9317658a406.18882788 406.18882788 0 0 1 31.06265047-1.78716763c11.09745051-0.24680028 22.97785084-0.13616509 35.743323 0.34041391 12.76547213 0.45955744 26.41601856 1.27654793 41.07929108 2.44246069 14.65476172 1.17442353 30.32225202 2.68925852 47.10459286 4.55301828 16.78234085 1.87227049 34.6795347 4.08495002 53.8022118 6.63804591 21.61620003 2.89350738 43.3685651 5.25937354 64.30393977 7.05504946 20.93537463 1.79567596 41.0622695 3.02967249 59.43604241 3.66794643 18.38228119 0.64678475 35.00292458 0.68933619 48.95133102 0.10212445 6.97845737-0.28935171 13.27609185-0.7403984 18.79077644-1.34462927a112.77869424 112.77869424 0 0 0 14.07606074-2.32331716c5.13171922-1.25101561 9.77835114-2.60415564 13.97393632-4.10197156 4.19558521-1.49781589 7.94012374-3.148816 11.27616703-5.00406492a46.21101029 46.21101029 0 0 0 8.7826466-6.22955067c2.53607434-2.3148064 4.69769413-4.89343218 6.5103916-7.78693961 1.80418673-2.89350738 3.26796201-6.10189637 4.42536392-9.67622666a66.72087056 66.72087056 0 0 0 2.57011501-11.91444101c0.56168189-4.37430173 0.85103115-9.17412023 0.90209334-14.46753689a240.33129623 240.33129623 0 0 0-0.53615202-17.35253102 264.25379188 264.25379188 0 0 0-1.78716515-18.29717833c-0.78294982-5.94019891-1.78716515-11.75274605-2.98712101-17.47167703a221.45541693 221.45541693 0 0 0-9.81239179-33.31788385c-1.84673814-4.85088075-3.18285665-8.45925421-4.39983406-11.02936675-1.21697495-2.56160422-2.3148064-4.08495002-3.71049789-4.77428619a4.56152901 4.56152901 0 0 0-2.34884706-0.42551684 12.14421972 12.14421972 0 0 0-3.09775371 0.6978445c-2.37437693 0.79145814-5.44660083 2.23821185-9.59963465 4.12750393-7.54013927 3.42114612-16.38235637 6.54443227-26.1436884 9.31028536a322.23456976 322.23456976 0 0 1-31.658373 7.1486631 411.04821697 411.04821697 0 0 1-34.90080014 4.57855058c-11.91444098 1.06378832-23.99908772 1.61695946-35.84544745 1.61695944h-24.42460454l19.85456474-16.058964c13.10588608-10.59534161 20.96090694-17.14828465 28.42445168-24.22886648 7.4635472-7.08058183 14.5271074-14.70582396 26.00752332-27.4457662 11.14851271-12.35697689 16.74830017-18.57801681 21.45450509-24.33950168 4.70620486-5.76999321 8.51031397-11.0804314 16.05896398-21.6332216a429.71984739 429.71984739 0 0 0 16.98658969-25.87135575 598.0028182 598.0028182 0 0 0 16.49298913-28.85847929 512.57627654 512.57627654 0 0 0 14.0930823-28.27126749c4.08495002-8.93583076 7.44652563-17.15679545 9.76984035-24.10121216 4.70620486-14.04202012 8.59541929-26.2117697 11.85487051-37.42836373 3.25094042-11.20808571 5.88062839-21.44599428 8.07628878-31.59029171 2.19566041-10.14429493 3.94878738-20.21199776 5.46362237-31.07966953 1.51483499-10.87618254 2.79138298-22.55233404 4.00835792-35.91352872 0.81699049-8.92731996 1.27654793-18.15250243 1.40420227-27.59895292a434.86858819 434.86858819 0 0 0-0.57870098-28.91804972 491.40261239 491.40261239 0 0 0-2.49352293-29.70099969 522.61844704 522.61844704 0 0 0-10.32301143-59.55518589 490.95156571 490.95156571 0 0 0-7.63375293-28.79890379 433.2771586 433.2771586 0 0 0-9.17412027-27.42023635 359.29699218 359.29699218 0 0 0-10.61236316-25.49690366 704.27112082 704.27112082 0 0 1-8.20394312-18.10995098c-0.49359808-1.29356705-6.8422923-13.1399267-14.11861219-26.31389413a378.07074704 378.07074704 0 0 0-14.71433475-24.37354232 435.6685571 435.6685571 0 0 0-17.02063033-24.10972301 483.53908075 483.53908075 0 0 0-19.046085-23.59059248 531.63086987 531.63086987 0 0 0-66.80597353-64.90817304 503.01068011 503.01068011 0 0 0-24.60332103-18.79077644 463.47175634 463.47175634 0 0 0-25.35222776-16.91850593 427.45610318 427.45610318 0 0 0-32.16048192-18.04186721 458.16132061 458.16132061 0 0 0-33.99870678-15.49728459 481.09662003 481.09662003 0 0 0-35.47099532-12.85057504 493.85358143 493.85358143 0 0 0-111.374492-21.8204464 464.32278996 464.32278996 0 0 0-37.51346907-1.39569394z" fill="#d81e06" p-id="4155"></path></svg>