<?xml version="1.0" standalone="no"?><!DOCTYPE svg PUBLIC "-//W3C//DTD SVG 1.1//EN" "http://www.w3.org/Graphics/SVG/1.1/DTD/svg11.dtd"><svg t="1615811003570" class="icon" viewBox="0 0 1024 1024" version="1.1" xmlns="http://www.w3.org/2000/svg" p-id="47610" xmlns:xlink="http://www.w3.org/1999/xlink" width="120" height="120"><defs><style type="text/css"></style></defs><path d="M877.12 141.12l-74.88 41.6-308.8-0.32c-225.92 0-309.76 0.96-312.96 3.52-3.84 2.88-4.48 35.52-4.48 186.56v183.04l-25.28 34.24c-90.88 122.56-106.88 222.4-46.08 287.36 30.4 32.64 70.08 45.76 136.96 45.76 51.2 0 88.96-5.76 146.56-22.4l38.08-10.88H883.2V374.08l8-18.56c24.64-59.2 55.68-170.88 60.8-219.52 0.96-10.56 2.88-23.04 3.52-28.16 0.96-4.8 0.64-8.64-0.96-8.32-1.28 0.32-36.16 18.88-77.44 41.6z m40 22.72C883.84 321.92 794.88 508.8 696.64 627.2c-30.4 36.8-109.44 115.2-143.04 142.08-79.36 63.36-156.8 102.72-234.24 118.4C190.72 913.92 96 868.8 96 780.8c0-38.08 20.8-88.32 63.68-154.56 20.48-31.36 64.96-82.56 68.48-79.04 0.96 0.96-3.52 10.24-9.92 20.8-29.12 48.64-47.68 106.24-44.48 138.56 2.24 24.96 8.96 37.44 27.2 48.96C220.48 768 233.28 771.2 262.4 771.2c32.32 0 56-6.4 94.4-25.6 85.12-42.24 167.68-122.56 248.64-241.6 30.4-44.48 82.56-135.68 82.56-144 0-1.92-90.88 0.64-114.24 3.2-7.68 0.96-13.76 0.32-13.76-0.96s19.84-13.12 44.16-26.24c24-13.12 74.88-42.56 112.64-65.28 64.32-38.4 165.44-96.96 187.2-108.48 12.8-7.04 14.72-6.72 13.12 1.6z m-428.8 54.4c-35.52 121.92-40.32 200.32-15.36 246.72 4.48 8.32 12.48 17.92 17.92 21.12 23.68 14.72 55.04 16 69.12 2.88 10.56-9.92 11.2-4.8 1.28 13.44-17.92 32.64-51.52 54.4-84.8 54.4-21.76 0-53.44-12.16-68.8-26.24-16-15.04-33.6-48-41.92-79.36-10.56-39.36-5.12-175.36 7.04-185.6 4.8-3.84 110.72-54.08 114.88-54.4 1.28 0 1.6 3.2 0.64 7.04z m-143.68 64c-0.96 4.16-3.2 16.64-5.12 28.16-13.12 85.44-2.56 163.84 28.48 210.56 22.4 33.28 44.16 45.44 86.4 48.64l27.2 1.92-21.76 10.24c-78.4 36.8-127.36 25.6-168.96-39.04-27.52-42.24-36.48-87.04-33.6-166.72 0.96-30.08 2.88-58.24 3.84-62.72 1.6-7.04 7.04-9.92 40.64-23.04 21.44-8 40.32-14.72 41.92-15.04 1.28 0 1.92 3.2 0.96 7.04z" p-id="47611" fill="#d81e06"></path></svg>