<?xml version="1.0" standalone="no"?><!DOCTYPE svg PUBLIC "-//W3C//DTD SVG 1.1//EN" "http://www.w3.org/Graphics/SVG/1.1/DTD/svg11.dtd"><svg t="1615808017029" class="icon" viewBox="0 0 1024 1024" version="1.1" xmlns="http://www.w3.org/2000/svg" p-id="5526" xmlns:xlink="http://www.w3.org/1999/xlink" width="120" height="120"><defs><style type="text/css"></style></defs><path d="M784.1 257.8h-95c-17.7 0-32 14.3-32 32s14.3 32 32 32h95c17.6 0 32-14.3 32-32s-14.3-32-32-32zM784.1 451.3h-95c-17.7 0-32 14.3-32 32s14.3 32 32 32h95c17.6 0 32-14.3 32-32s-14.3-32-32-32z" fill="#39D19A" p-id="5527"></path><path d="M911.8 67.3l-1.6-0.4-1.6-0.2c-67.2-9.6-135.3-9.1-202.4 1.4-66.8 10.5-131.6 30.9-192.4 60.5C453 99 388.2 78.6 321.4 68.1 254.3 57.5 186.2 57 119 66.7l-1.6 0.2-1.6 0.4c-27 6.7-47.3 32.7-47.3 60.4v710.4c0 17.3 7.5 33.6 20.7 44.7 13.1 11.2 30.4 16 47.5 13.2l27.7-4.5c101.6-16.5 206.5-7.1 303.6 27l25 8.8c6.7 2.4 13.7 3.5 20.8 3.5 7 0 14.1-1.2 20.8-3.5l25-8.8c97.1-34.1 202-43.5 303.6-27l27.7 4.5c17 2.8 34.3-2.1 47.5-13.2 13.1-11.2 20.7-27.5 20.7-44.7V127.7C959 100 938.7 74 911.8 67.3z m-565.7 448h-95c-17.7 0-32-14.3-32-32s14.3-32 32-32h95c17.7 0 32 14.3 32 32s-14.4 32-32 32z m0-193.5h-95c-17.7 0-32-14.3-32-32s14.3-32 32-32h95c17.7 0 32 14.3 32 32s-14.4 32-32 32zM895 832l-21.6-3.5c-109.5-17.8-222.6-8.3-327.6 27.2V184.3c54-25.8 111.3-43.6 170.4-53 59.3-9.3 119.4-10 178.8-1.9V832z" fill="#39D19A" p-id="5528"></path></svg>