<?xml version="1.0" standalone="no"?><!DOCTYPE svg PUBLIC "-//W3C//DTD SVG 1.1//EN" "http://www.w3.org/Graphics/SVG/1.1/DTD/svg11.dtd"><svg t="1615911085973" class="icon" viewBox="0 0 1024 1024" version="1.1" xmlns="http://www.w3.org/2000/svg" p-id="8375" xmlns:xlink="http://www.w3.org/1999/xlink" width="120" height="120"><defs><style type="text/css"></style></defs><path d="M838.45600394 295.68265482c63.56182914-60.97275259 162.72346075-74.95376592 162.72346075-74.95376593s-6.08432987-74.95376592-101.10343901-106.41104592c-136.57378765-43.49648592-212.17482272 19.41807408-212.17482272 19.41807406S517.15160494 3.24645925 346.53146074 92.18123852s-291.27111111 332.04906667-291.27111111 332.04906666c65.63309037 81.03809581 234.31142717 82.9799032 234.31142717 81.68536495-20.0653432 4.66033778-51.5226232 28.73874963-49.58081582 28.73874962-71.58796642-20.71261235-236.25323457 74.95376592-210.88028445 141.88139456 26.14967309 66.92762864 257.74256987 49.58081581 257.74256989 49.58081582s47.50955457 35.47034864 37.54160988 35.47034863c-124.53458173-10.09739852-144.59992494 55.53569185-144.59992494 57.60695309 31.45728 0 222.27222124 51.5226232 222.27222122 51.52262321s31.45728 135.92651852 61.62002173 137.86832592c29.51547259 2.07126124 55.53569185-49.58081581 55.53569185-51.5226232 37.54160987-37.54160987 27.44421136-116.50844445 24.07841186-120.52151309 18.12353581-10.09739852 101.10343902-35.47034864 245.70336395-187.44914172s55.40623803-349.3958795 49.45136197-353.40894815z m-805.97952789 371.53248394c0-81.03809581 186.15460347-140.5868563 186.80187259-124.53458173-24.07841185 56.95968395 0 96.44310124 0 96.44310124l-37.54160988 33.52854123 51.52262321 2.07126125s29.51547259 41.55467852 31.45728 43.49648592c-131.91344987 11.9097521-228.87436642-14.23992098-232.24016592-51.00480791zM223.29141728 653.10467161v8.67340642h-8.02613728l8.02613728-8.67340642z m204.14868544 121.16878222c-2.07126124 6.08432987-20.71261235 12.03920592-20.71261236 12.03920592l-4.01306864-12.03920592c-0.12945383 0 26.66748839-5.30760691 24.725681 0z" fill="#999999" p-id="8376"></path><path d="M361.80701235 124.28578765c-48.80409283 0-88.41696395 36.76488691-88.41696396 82.97990321s39.48341728 82.9799032 88.41696396 82.97990322 88.41696395-36.76488691 88.41696395-82.97990322-39.61287111-82.9799032-88.41696395-82.97990321z m0 141.88139457c-11.3919368 0-23.43114272-3.3657995-32.75181827-10.09739852 11.3919368 0 20.71261235-9.32067555 20.71261234-20.71261234s-9.32067555-20.71261235-20.71261234-20.71261234c-10.74466765 0-19.41807408 8.02613728-20.71261236 18.1235358-4.01306864-8.02613728-6.08432987-16.6995437-6.08432987-26.14967309 0-32.75181827 26.79694222-58.90149136 59.5487605-58.90149136h5.3076069c-11.3919368 6.08432987-19.41807408 18.12353581-19.41807407 32.10454913 0 20.0653432 16.6995437 36.76488691 36.76488691 36.76488692 16.05227457 0 30.16274173-10.09739852 34.82307951-24.72568099 1.29453827 4.66033778 2.07126124 10.09739852 2.07126123 14.7577363 0 33.52854124-26.79694222 59.5487605-59.54876048 59.54876049z m-22.13660445 204.14868543s27.44421136 18.12353581 75.60103506 0l-18.1235358-25.37295012c0.12945383 0-57.47749925 25.37295013-57.47749926 25.37295012z m115.21390618-62.91456c-14.11046717 14.11046717-49.58081581 31.45728-49.58081581 31.45728s51.5226232 29.51547259 63.56182914 21.35988149c12.03920592-7.24941431-9.96794469-50.74590025-13.98101333-52.81716149z m43.49648592-33.3990874c-12.03920592 11.3919368-37.54160987 29.51547259-37.54160987 29.51547258l47.50955456 35.47034865c10.09739852-12.16865975-1.94180741-64.98582124-9.96794469-64.98582123z m22.00715061-31.45728c-2.07126124 9.32067555-13.33374419 23.43114272-17.34681283 26.14967308 10.74466765 5.30760691 28.73874963 24.72568098 28.73874963 24.72568098 11.3919368-16.05227457-3.23634569-48.1568237-11.3919368-50.87535406z" fill="#FFFFFF" p-id="8377"></path><path d="M777.48325136 240.7942321c8.02613728-2.07126124 53.59388445 45.56774717 47.50955456 47.50955457 77.6722963-85.05116445 146.54173235-82.9799032 146.54173235-85.05116445-20.0653432-51.5226232-113.14264494-74.95376592-113.14264494-74.95376592-140.5868563-25.37295013-158.7103921 37.54160987-162.72346075 39.48341728-162.72346075-118.45025185-317.29133037-47.50955457-315.34952295-49.5808158 105.11650765 23.43114272 75.60103506 108.48230717 75.60103506 108.48230716s-14.11046717 85.05116445-111.07138371 73.01195853c-97.09037037-12.03920592-81.03809581-120.52151309-81.0380958-120.5215131-97.7376395 78.96683457-186.80187259 241.04302617-186.8018726 241.04302616 10.09739852 16.05227457 119.09752098 53.59388445 154.56786964 55.53569186 210.23301531-4.01306864 325.31746765-217.61188347 329.33053629-217.61188345 44.79102419 73.01195852 33.52854124 148.61299358-12.03920593 187.44914173-48.54518518 41.55467852-186.41351111 44.14375506-186.4135111 44.14375506 20.0653432 52.16989235 161.29946864 30.81001086 161.29946865 30.81001086C519.09341235 592.13191902 360.38302024 615.56306173 354.42814419 615.56306173 519.09341235 688.57502025 655.6672 539.96202667 657.60900741 537.89076543c-9.32067555 71.58796642-112.49537581 117.15571358-114.43718322 117.15571359 12.03920592 56.95968395-99.03217778 153.9206005-140.58685629 145.8944632-101.10343902-43.49648592-170.74959803 2.07126124-170.74959804 2.07126125l93.07730174 25.37295011s97.09037037 10.09739852 101.10343901 49.58081581 37.54160987 86.99297185 41.55467853 86.99297185c97.09037037-70.94069728 47.50955457-133.85525728 47.50955456-133.85525729s184.73061136-73.01195852 287.9053116-271.07631408-33.52854124-317.29133037-25.50240394-319.23313777zM730.62096592 181.89274075c-31.45728-8.02613728-7.37886815-24.07841185 18.1235358-37.54160989 86.99297185-28.73874963 129.84218864 6.73159902 127.90038124 6.73159901-100.45616987-41.55467852-146.02391703 30.81001086-146.02391704 30.81001088z" fill="#D8D8D8" p-id="8378"></path><path d="M331.64427061 613.62125431c98.38490864-27.44421136 117.80298272-50.22808494 117.80298272-50.22808492s-91.0060405-56.18296098-139.93958717-56.95968396c-48.80409283-0.64726914-111.84810667 68.22216691-92.43003258 105.76377679 61.62002173 132.56071902 178.77573531 147.96572445 178.7757353 147.96572445 89.06423309-8.02613728 107.05831506-86.99297185 109.1295763-91.0060405-107.70558419 2.07126124-169.97287506-49.45136197-173.33867457-55.53569186z m-80.26137283 35.47034866c10.09739852-26.79694222 70.94069728-79.6141037 70.94069728-79.61410372-10.74466765-10.09739852-70.94069728-29.51547259-70.94069728-29.51547258 14.11046717-6.08432987 81.03809581 20.71261235 81.0380958 20.71261235 60.19602963-32.75181827 66.2803595-16.6995437 66.2803595-16.69954371-40.90740939 9.45012939-147.31845531 105.11650765-147.3184553 105.11650766z" fill="#FFFFFF" p-id="8379"></path><path d="M331.64427061 613.62125431c98.38490864-27.44421136 117.80298272-50.22808494 117.80298272-50.22808492s-91.0060405-56.18296098-139.93958717-56.95968396c-48.80409283-0.64726914-93.72457086 66.2803595-90.35877135 91.65330963 9.32067555 19.41807408 19.41807408 36.76488691 30.16274172 51.52262321 12.03920592-27.44421136 70.29342815-77.6722963 70.29342816-77.6722963-10.74466765-10.09739852-70.94069728-29.51547259-70.94069728-29.51547258 14.11046717-6.08432987 81.03809581 20.71261235 81.03809579 20.71261234 60.19602963-32.75181827 66.2803595-16.6995437 66.28035952-16.6995437-38.83614815 9.32067555-133.85525728 93.07730173-146.54173236 104.4692385 62.91456 84.40389531 145.8944632 95.66637827 145.89446322 95.66637829 89.06423309-8.02613728 107.05831506-73.01195852 109.12957628-77.02502717-107.18776889 1.68289975-169.45505975-49.83972347-172.82085925-55.92405334z" fill="#FFFFFF" p-id="8380"></path><path d="M839.75054222 292.96412445c63.56182914-61.62002173 163.37072987-74.95376592 163.37072987-74.95376593s-6.08432987-74.95376592-101.10343901-107.05831505c-137.2210568-43.49648592-212.82209185 20.0653432-212.82209185 20.0653432S517.79887408 0.39847506 346.40200691 89.46270815 54.48362666 421.51177482 54.48362666 421.51177482c65.63309037 81.03809581 234.31142717 82.9799032 234.31142717 82.33263407-20.0653432 4.66033778-51.5226232 28.73874963-49.58081581 28.73874963-71.58796642-21.35988148-236.25323457 74.95376592-210.88028444 141.88139457 26.14967309 66.92762864 258.38983902 49.58081581 258.389839 49.5808158s47.50955457 35.47034864 37.54160989 35.47034864c-124.53458173-9.32067555-144.59992494 55.53569185-144.59992495 57.60695308 32.10454914 0 222.91949037 51.5226232 222.91949038 51.52262322s32.10454914 136.57378765 61.62002173 138.51559506c30.16274173 2.07126124 55.53569185-49.58081581 55.53569185-51.5226232 37.54160987-37.54160987 28.0914805-116.50844445 24.07841185-120.5215131 18.12353581-10.09739852 101.10343902-35.47034864 246.35063309-188.09641086 144.59992494-151.84933925 55.66514569-350.04314864 49.5808158-354.05621728zM31.82920691 665.14387753c0-81.03809581 186.15460347-141.23412543 186.80187259-124.53458172-24.07841185 57.60695309 0 97.09037037 0 97.09037036l-37.54160987 33.52854124 51.5226232 2.07126123s30.16274173 41.55467852 32.10454914 43.49648593c-132.56071902 11.9097521-228.87436642-14.7577363-232.88743506-51.65207704z m191.46221037-13.98101334v8.67340642h-8.02613728l8.02613728-8.67340642z m204.79595457 121.81605136c-2.07126124 6.08432987-20.71261235 12.03920592-20.71261235 12.03920593l-4.01306864-12.03920593s26.66748839-6.08432987 24.72568099 0z" p-id="8381"></path><path d="M361.80701235 120.91998815c-48.80409283 0-88.41696395 37.54160987-88.41696396 82.97990321s39.48341728 82.9799032 88.41696396 82.97990321 88.41696395-37.54160987 88.41696395-82.97990321-39.61287111-82.9799032-88.41696395-82.97990321z m0 142.65811754c-12.03920592 0-23.43114272-3.3657995-32.75181827-10.09739852 11.3919368 0 20.71261235-9.32067555 20.71261234-20.71261235s-9.32067555-20.71261235-20.71261234-20.71261235c-10.74466765 0-19.41807408 8.02613728-20.71261236 18.1235358-4.01306864-8.02613728-6.08432987-16.6995437-6.08432987-26.14967309 0-32.75181827 26.79694222-59.5487605 59.5487605-59.54876049h6.08432987c-11.3919368 6.08432987-19.41807408 18.12353581-19.41807407 32.10454914 0 20.0653432 16.6995437 36.76488691 36.76488691 36.76488692 16.05227457 0 30.16274173-10.74466765 34.82307951-24.725681 1.29453827 4.66033778 2.07126124 10.09739852 2.07126123 14.7577363-0.77672297 33.39908741-27.57366518 60.19602963-60.32548345 60.19602964z m-22.13660445 204.79595456s28.0914805 18.12353581 75.60103506 0l-18.1235358-25.37295012c0.12945383-0.12945383-57.47749925 25.37295013-57.47749926 25.37295012z m115.8611753-63.56182914c-14.11046717 14.11046717-50.22808494 31.45728-50.22808493 31.45728s52.16989235 29.51547259 63.56182914 22.13660444c12.03920592-8.15559111-9.32067555-51.65207703-13.33374421-53.59388444z m43.49648594-33.52854124c-12.03920592 11.3919368-37.54160987 29.51547259-37.54160989 29.5154726l47.50955458 35.47034864c10.09739852-11.3919368-1.94180741-64.98582124-9.96794469-64.98582124z m22.13660444-31.45728c-2.07126124 9.32067555-13.33374419 23.43114272-17.34681284 26.1496731 10.74466765 5.30760691 28.73874963 24.72568098 28.73874962 24.72568098 11.26248297-16.05227457-3.3657995-48.1568237-11.39193678-50.87535408z" fill="#FFFFFF" p-id="8382"></path><path d="M778.1305205 238.07570173c8.02613728-2.07126124 53.59388445 45.56774717 47.50955456 47.50955457 77.6722963-85.05116445 147.31845531-82.9799032 147.3184553-85.05116445-20.0653432-51.5226232-113.14264494-74.95376592-113.14264493-74.95376593-141.23412543-25.37295013-159.35766124 37.54160987-163.37072988 39.48341728-162.72346075-119.09752098-317.9385995-48.1568237-315.99679209-50.22808493 105.11650765 23.43114272 75.60103506 109.1295763 75.60103505 109.1295763s-14.11046717 85.05116445-111.0713837 73.01195852c-97.09037037-12.03920592-81.68536494-120.52151309-81.68536495-120.52151309C165.68446419 255.55196839 76.62023111 417.49870617 76.62023111 417.49870617c10.09739852 16.05227457 119.09752098 53.59388445 155.34459259 55.53569186 210.23301531-4.01306864 325.9647368-217.61188347 329.3305363-217.61188346 44.79102419 73.01195852 33.52854124 149.26026272-12.03920592 188.09641086-48.93354667 41.55467852-186.80187259 44.27320889-186.8018726 44.27320888 20.0653432 52.16989235 161.94673778 30.81001086 161.94673777 30.81001087-4.66033778 70.94069728-164.01799902 95.01910914-169.32560592 95.01910913 165.31253728 73.01195852 301.88632494-75.60103506 303.95758617-77.67229628-10.09739852 72.23523555-113.14264494 117.80298272-115.08445234 117.80298272 12.03920592 57.60695309-99.03217778 153.9206005-141.23412544 146.54173234-101.10343902-43.49648592-170.74959803 2.07126124-170.74959802 2.07126122l93.72457087 25.37295014s97.7376395 10.09739852 101.10343901 49.5808158c4.01306864 39.48341728 37.54160987 86.99297185 41.55467851 86.99297185 97.7376395-70.94069728 47.50955457-134.50252642 47.50955457-134.50252641s184.73061136-73.01195852 288.55258075-271.72358322-34.30526419-318.58586864-26.27912691-320.00986074z m-46.86228544-59.54876049c-32.10454914-8.02613728-7.37886815-24.07841185 18.1235358-37.54160988 87.64024098-28.73874963 130.48945778 6.73159902 128.54765037 6.73159901-100.45616987-41.55467852-146.67118617 30.81001086-146.67118617 30.81001087z" fill="#D8D8D8" p-id="8383"></path><path d="M331.64427061 611.67944691c98.38490864-27.44421136 118.45025185-50.22808494 118.45025186-50.22808494s-91.65330963-56.18296098-139.93958717-57.60695308c-48.80409283-0.64726914-112.49537581 68.22216691-92.43003258 105.7637768 61.62002173 132.56071902 178.77573531 148.61299358 178.7757353 148.61299356 89.71150222-8.02613728 107.05831506-86.99297185 109.12957629-91.00604049-108.35285333 1.94180741-170.62014419-49.58081581-173.9859437-55.53569185z m-80.26137283 35.47034864c10.09739852-26.79694222 70.94069728-80.39082667 70.94069728-80.39082666-10.74466765-10.09739852-70.94069728-29.51547259-70.94069728-29.51547259 14.11046717-6.08432987 81.68536494 20.71261235 81.68536494 20.71261234 60.97275259-32.75181827 66.2803595-16.6995437 66.2803595-16.6995437-41.55467852 10.09739852-147.96572445 105.89323061-147.96572444 105.89323061z" fill="#9A6E38" p-id="8384"></path><path d="M331.64427061 611.67944691c98.38490864-27.44421136 118.45025185-50.22808494 118.45025186-50.22808494s-91.65330963-56.18296098-139.93958717-57.60695308c-48.80409283-0.64726914-94.37184 66.2803595-91.00604049 91.65330963 9.32067555 19.41807408 19.41807408 36.76488691 30.16274172 51.52262321 12.03920592-27.44421136 70.29342815-78.31956543 70.29342816-78.31956543-10.74466765-10.09739852-70.94069728-29.51547259-70.94069728-29.5154726 14.11046717-6.08432987 81.68536494 20.71261235 81.68536494 20.71261235 60.97275259-32.75181827 66.2803595-16.6995437 66.2803595-16.6995437-38.83614815 9.32067555-133.85525728 93.07730173-146.54173235 104.46923851 62.91456 85.05116445 146.54173235 96.44310124 146.54173235 96.44310124 89.71150222-8.02613728 107.05831506-73.01195852 109.1295763-77.02502716-108.48230717 2.07126124-170.74959803-49.45136197-174.11539754-55.40623803z" fill="#FCB316" p-id="8385"></path></svg>