<?xml version="1.0" standalone="no"?><!DOCTYPE svg PUBLIC "-//W3C//DTD SVG 1.1//EN" "http://www.w3.org/Graphics/SVG/1.1/DTD/svg11.dtd"><svg t="1615808419863" class="icon" viewBox="0 0 1024 1024" version="1.1" xmlns="http://www.w3.org/2000/svg" p-id="16442" xmlns:xlink="http://www.w3.org/1999/xlink" width="120" height="120"><defs><style type="text/css"></style></defs><path d="M829.611621 375.859535c-0.00973-0.20434-0.00973-0.418411-0.00973-0.632482l0 0.515716C829.601891 375.781691 829.601891 375.820613 829.611621 375.859535z" p-id="16443" fill="#13227a"></path><path d="M303.901365 552.497072c1.587286-0.476794 3.279174-0.739517 5.020931-0.739517l-0.476794 0C306.559004 551.757555 305.069023 552.031225 303.901365 552.497072z" p-id="16444" fill="#13227a"></path><path d="M829.620136 759.406155c0.048652-0.963318 0.175149-1.908392 0.379489-2.821841C829.775823 757.002725 829.659058 757.89793 829.620136 759.406155z" p-id="16445" fill="#13227a"></path><path d="M818.774291 792.909439c-3.172139-6.440366-6.529157-12.774914-10.090515-18.984181-0.00973-0.019461-0.019461-0.037706-0.038922-0.059599-15.432553-26.134873-34.368081-50.402708-56.436827-72.062773l-0.00973-0.012163c-4.79713-4.709556-9.740218-9.30113-14.829263-13.757693-36.284987-31.799233-78.174735-55.376204-122.847403-69.718942 8.086035-4.476024 15.909347-9.496956 23.421283-15.05428 8.553098-6.304139 16.697516-13.311307 24.35541-20.967984 40.274487-40.275703 62.459998-93.83109 62.459998-150.793363-0.108252 0.017028-0.214071 0.03284-0.321106 0.049869l4.276549-1.89258 0-109.404735-28.715884 0 0 90.599351 0.001216 0c-42.479659 17.718001-88.054829 28.864274-135.615019 33.150554-40.790203 3.676908-83.145798 2.352345-125.88818-3.940847-50.641105-7.453553-93.12198-20.921764-114.654333-29.334987l0-90.474071-28.713452 0 0 109.351217 4.311822 1.935151c-0.097305-0.012163-0.195826-0.025543-0.293131-0.037706 0 56.963489 22.185511 110.518875 62.459998 150.793363 7.657894 7.656677 15.802311 14.663844 24.35541 20.967984 7.51072 5.557325 15.335248 10.578256 23.420067 15.05428-44.672667 14.342738-86.562416 37.920926-122.847403 69.718942-5.089045 4.456563-10.032132 9.048137-14.829263 13.757693-22.088206 21.680742-41.043196 45.966822-56.485479 72.133319-3.561358 6.209267-6.918377 12.543815-10.090515 18.984181-16.210992 32.958377-26.914528 68.143819-31.808963 104.583278-1.566608 11.676585 6.626462 22.408096 18.293316 23.977137 0.963318 0.12528 1.926636 0.193393 2.870494 0.193393 0.866013 0 1.712566-0.049869 2.559118-0.155688 8.436333-1.840278 15.247674-8.7173 16.57102-17.758139 9.827792-67.451738 41.977322-128.745295 88.187407-175.42001 54.83981-55.416342 129.482379-90.24054 210.149335-90.377983l0.457333 0c80.490591 0.27367 154.958011 35.069893 209.692003 90.377983 46.210084 46.675932 78.359615 107.968271 88.187407 175.42001 1.323346 9.020162 8.105496 15.889886 16.522368 17.748409 0.019461 0 0.029191 0.00973 0.048652 0.00973 0.846552 0.105819 1.693105 0.155688 2.559118 0.155688 0.943857 0 1.907176-0.068113 2.870494-0.193393 11.668071-1.567825 19.861141-12.299336 18.294533-23.975921C845.688819 861.053259 834.985283 825.867816 818.774291 792.909439zM511.495231 602.103097c-0.428141 0-0.856283 0-1.284424-0.00973-79.595387-0.583829-150.559831-55.882189-169.952692-130.057694-0.214071-0.80763-0.426925-1.624991-0.622751-2.442352-2.458164-9.929962-1.770949-14.898592-1.420651-23.381145 22.676901 7.328273 55.434586 16.20491 95.13984 22.114965 28.721966 4.276549 57.301624 6.417256 85.423948 6.417256 16.027329 0 31.909917-0.69573 47.579651-2.089622 42.40668-3.772996 83.350138-12.715314 122.158971-26.604369-0.588694 8.027652-2.005697 14.491128-4.247358 23.54413-0.19461 0.817361-0.40868 1.634722-0.622751 2.442352-19.392861 74.175505-90.357306 129.475081-169.952692 130.057694C512.964535 602.103097 512.234748 602.103097 511.495231 602.103097z" p-id="16446" fill="#13227a"></path><path d="M864.388383 375.801152c0.00973-0.038922 0.00973-0.087574 0.00973-0.126496l0-0.447602C864.396897 375.421663 864.396897 375.616273 864.388383 375.801152z" p-id="16447" fill="#13227a"></path><path d="M789.014812 245.671696l0 137.845733 28.715884 0L817.730696 236.031215l46.666201-15.667301L511.940401 102.036323 157.275083 220.363915l354.665317 118.326375L789.014812 245.671696zM248.00458 220.363915l263.906629-88.046315 262.263393 88.046315-262.263393 88.047531L248.00458 220.363915z" p-id="16448" fill="#13227a"></path></svg>