<?xml version="1.0" standalone="no"?><!DOCTYPE svg PUBLIC "-//W3C//DTD SVG 1.1//EN" "http://www.w3.org/Graphics/SVG/1.1/DTD/svg11.dtd"><svg t="1614338385495" class="icon" viewBox="0 0 1024 1024" version="1.1" xmlns="http://www.w3.org/2000/svg" p-id="2017" xmlns:xlink="http://www.w3.org/1999/xlink" width="120" height="120"><defs><style type="text/css"></style></defs><path d="M157.457067 0.648533h708.266666a157.4912 157.4912 0 0 1 157.457067 156.16v709.7856a157.4912 157.4912 0 0 1-157.457067 156.16h-708.266666a157.4912 157.4912 0 0 1-157.457067-156.16V156.808533A157.4912 157.4912 0 0 1 157.457067 0.648533z m0 0" fill="#42BD56" p-id="2018"></path><path d="M522.3936 873.4208a1825.245867 1825.245867 0 0 1-360.3968-27.306667c-58.026667-10.786133-92.16-49.9712-90.453333-104.482133 0-15.36 5.6832-23.278933 21.6064-23.278933h36.949333a26.8288 26.8288 0 0 1 30.122667 19.8656 49.339733 49.339733 0 0 0 45.482666 35.208533c54.613333 8.533333 109.704533 15.36 164.846934 18.773333a2017.604267 2017.604267 0 0 0 262.058666 0c63.146667-4.539733 126.190933-10.24 188.7232-19.882666a36.061867 36.061867 0 0 0 33.536-26.692267c5.6832-24.9856 22.186667-27.818667 43.776-27.818667 55.7056 0.5632 57.412267 2.269867 43.195734 55.074134a87.569067 87.569067 0 0 1-61.952 67.003733 863.573333 863.573333 0 0 1-165.9904 26.129067 1265.92 1265.92 0 0 1-191.573334 7.3728z m1.143467-722.858667a1461.947733 1461.947733 0 0 1 317.201066 23.278934c64.238933 10.24 94.9248 26.112 108.578134 102.212266 3.413333 19.8656-4.539733 28.381867-23.893334 27.818667-11.946667-0.5632-25.019733-2.269867-37.546666-2.269867a27.9552 27.9552 0 0 1-30.122667-20.48 51.9168 51.9168 0 0 0-44.9024-32.938666 2102.357333 2102.357333 0 0 0-387.106133-21.009067c-74.461867 3.976533-149.504 14.199467-223.965867 21.572267a43.656533 43.656533 0 0 0-39.253333 28.398933 33.723733 33.723733 0 0 1-40.96 24.9856 210.363733 210.363733 0 0 0-26.7264-1.143467c-17.066667 0.5632-23.313067-7.389867-23.313067-24.4224a95.095467 95.095467 0 0 1 74.461867-95.3856 1542.007467 1542.007467 0 0 1 377.4464-30.72z m-97.774934 362.8544v106.752a198.9632 198.9632 0 0 1-5.12 36.9152c-3.413333 15.36-27.306667 31.7952 6.263467 43.144534 7.953067 2.850133 5.6832 19.3024 2.833067 30.088533a18.363733 18.363733 0 0 1-21.6064 11.946667c-25.002667-1.706667-52.906667 1.706667-68.778667-26.112a21.384533 21.384533 0 0 0-21.0432-9.079467 211.131733 211.131733 0 0 1-26.709333-1.706667c-82.432-11.946667-92.16-23.278933-92.16-105.6256V391.3216c0-36.9152 14.216533-55.0912 49.493333-66.440533a203.946667 203.946667 0 0 1 131.310933 2.269866c30.122667 10.24 43.195733 29.525333 44.373334 65.297067 1.706667 40.96 1.143467 81.2032 1.143466 120.951467z m-90.453333-0.5632v-114.705066c0-15.906133-2.850133-28.398933-22.7328-28.398934-18.773333 0-25.019733 9.096533-25.019733 26.692267v229.410133c0 17.066667 5.12 31.232 24.439466 31.232s22.7328-15.906133 22.7328-31.7952c0.580267-37.546667 0-74.9568 0.580267-112.4352z m373.469867-64.733866c11.3664-35.84 21.026133-63.5904 28.416-91.426134a34.781867 34.781867 0 0 1 39.253333-30.088533c68.778667 0 59.733333 3.976533 40.96 55.6544-16.4864 45.431467-30.122667 91.426133-49.493333 135.150933s-13.073067 90.845867-15.36 136.277334c-0.5632 15.36 6.263467 35.208533-13.073067 42.018133a116.992 116.992 0 0 1-65.365333-2.269867c-5.12-1.143467-6.826667-7.953067-7.389867-13.056v-5.12c16.4864-112.9984-40.362667-208.964267-72.192-310.613333-10.8032-33.501867-9.096533-36.9152 25.6-37.546667 7.953067 0 15.9232 0.5632 23.893333 0a28.757333 28.757333 0 0 1 34.679467 24.9856c7.953067 29.525333 18.193067 58.487467 30.122667 95.965867z m243.3024 66.440533v152.183467c0 20.48-5.6832 30.72-29.013334 31.232-58.555733 1.143467-58.555733 1.706667-58.555733-57.344 0-93.115733 0.5632-186.811733 0-280.507734 0-25.6 9.096533-34.133333 34.133333-33.501866 52.906667 1.143467 52.906667 0 52.906667 51.677866z m-395.639467 0.5632c0 52.241067-0.5632 105.045333 0 157.2864 0 17.595733-5.6832 23.893333-22.7328 24.9856-65.365333 4.539733-65.365333 5.12-65.365333-60.194133V365.243733c0-35.84 2.269867-38.0416 37.546666-38.6048a74.9056 74.9056 0 0 0 15.906134 0c25.6-2.833067 34.679467 7.953067 34.133333 33.501867-1.706667 51.677867-0.5632 103.338667-0.5632 154.453333zM154.555733 566.2208v103.918933c0 19.3024-7.953067 26.692267-26.7264 27.306667-55.7056 2.269867-55.7056 2.833067-55.7056-53.947733 0-58.487467 0.5632-116.974933 0-176.0256 0-21.572267 7.389867-30.088533 29.559467-30.088534 63.658667 0 53.435733-3.976533 53.435733 51.0976z m0-196.471467c0 43.7248 0 43.7248-39.253333 43.7248-43.776 0-43.776 0-43.195733-44.373333 0-42.018133 0-42.018133 43.195733-42.018133 38.656 0 38.656 0 39.253333 42.666666z m0 0" fill="#FFFFFF" p-id="2019"></path></svg>