<?xml version="1.0" standalone="no"?><!DOCTYPE svg PUBLIC "-//W3C//DTD SVG 1.1//EN" "http://www.w3.org/Graphics/SVG/1.1/DTD/svg11.dtd"><svg t="1615812167047" class="icon" viewBox="0 0 1024 1024" version="1.1" xmlns="http://www.w3.org/2000/svg" p-id="50668" xmlns:xlink="http://www.w3.org/1999/xlink" width="120" height="120"><defs><style type="text/css"></style></defs><path d="M593.04829331 368.60686503m-167.084174 0a167.08417539 167.08417539 0 1 0 334.16834939 0 167.08417539 167.08417539 0 1 0-334.16834939 0Z" fill="#C0EAFF" p-id="50669"></path><path d="M204.01648403 411.00135714m-132.17106368 0a132.17106368 132.17106368 0 1 0 264.34212736 0 132.17106368 132.17106368 0 1 0-264.34212736 0Z" fill="#C0EAFF" p-id="50670"></path><path d="M164.11578494 747.66350093h653.37393804v77.30760243H164.11578494z" fill="#C0EAFF" p-id="50671"></path><path d="M169.10337232 849.90904028c-14.96276217 0-24.93793694-9.97517478-24.93793693-24.93793692V558.13518299c0-14.96276217 9.97517478-24.93793694 24.93793693-24.93793694s24.93793694 9.97517478 24.93793694 24.93793694v266.83592037c0 12.46896778-9.97517478 24.93793694-24.93793694 24.93793692zM415.98894452 455.88964225h-79.80139681c-14.96276217 0-24.93793694-9.97517478-24.93793694-24.93793556s9.97517478-24.93793694 24.93793694-24.93793694h79.80139681c14.96276217 0 24.93793694 9.97517478 24.93793693 24.93793694s-9.97517478 24.93793694-24.93793693 24.93793556zM817.48972298 849.90904028H283.81788084c-14.96276217 0-24.93793694-9.97517478-24.93793694-24.93793692s9.97517478-24.93793694 24.93793694-24.93793555h511.22769957V455.88964225h-27.43173131c-14.96276217 0-24.93793694-9.97517478-24.93793556-24.93793556s9.97517478-24.93793694 24.93793556-24.93793694h52.36966687c14.96276217 0 24.93793694 9.97517478 24.93793694 24.93793694v394.01939667c-2.49379299 12.46896778-12.46896778 24.93793694-27.43172993 24.93793692z" fill="#1F87DD" p-id="50672"></path><path d="M959.63596141 782.57661126c-4.98758739 0-9.97517478-2.49379299-12.46896915-4.9875874l-57.35725287-37.4069047c-12.46896778-7.48138039-14.96276217-22.44414255-7.48138178-34.91311033 7.48138039-12.46896778 22.44414255-14.96276217 34.91311171-7.48138178l19.95034955 12.46896915v-224.44142963l-94.76415897 59.85104726c-12.46896778 7.48138039-27.43172994 4.98758739-34.91311171-7.4813804-7.48138039-12.46896778-4.98758739-27.43172994 7.48138039-34.91311171l134.66485807-84.78898418c7.48138039-4.98758739 17.45655516-4.98758739 24.93793693 0s12.46896778 12.46896778 12.46896777 22.44414391v316.71179425c0 9.97517478-4.98758739 17.45655516-12.46896777 22.44414255-7.48138039 2.49379299-9.97517478 2.49379299-14.96276217 2.49379301zM593.04829331 570.60415076c-109.72692114 0-197.00969834-89.77657158-197.00969834-197.00969832s89.77657158-197.00969834 197.00969834-197.00969973 197.00969834 89.77657158 197.00969972 197.00969973-87.28277859 197.00969834-197.00969972 197.00969832z m0-346.63731857c-82.2951912 0-147.13382583 67.33242902-147.13382583 147.13382585s67.33242902 147.13382583 147.13382583 147.13382585 147.13382583-67.33242902 147.13382585-147.13382585-64.83863466-147.13382583-147.13382585-147.13382585z" fill="#1F87DD" p-id="50673"></path><path d="M573.09794515 371.10065804c0-9.97517478 7.48138039-19.95034954 19.95034816-19.95034816s19.95034954 7.48138039 19.95034955 19.95034816" fill="#C0EAFF" p-id="50674"></path><path d="M199.02889664 570.60415076c-87.28277859 0-159.60279362-72.32001642-159.602795-159.60279362s72.32001642-159.60279362 159.602795-159.60279363 159.60279362 72.32001642 159.60279363 159.60279363-69.82622205 159.60279362-159.60279363 159.60279362z m0-271.82350775c-59.85104726 0-109.72692114 49.87587248-109.72692112 109.72691975s49.87587248 109.72692114 109.72692112 109.72692113 109.72692114-49.87587248 109.72691977-109.72692113-47.38207948-109.72692114-109.72691977-109.72691975z" fill="#1F87DD" p-id="50675"></path></svg>