<?xml version="1.0" standalone="no"?><!DOCTYPE svg PUBLIC "-//W3C//DTD SVG 1.1//EN" "http://www.w3.org/Graphics/SVG/1.1/DTD/svg11.dtd"><svg t="1615812014929" class="icon" viewBox="0 0 1024 1024" version="1.1" xmlns="http://www.w3.org/2000/svg" p-id="50525" xmlns:xlink="http://www.w3.org/1999/xlink" width="120" height="120"><defs><style type="text/css"></style></defs><path d="M 861.9 383.8 H 218.1 c -36.4 0 -66.1 -29.8 -66.1 -66.1 V 288 c 0 -36.4 29.8 -66.1 66.1 -66.1 h 643.8 c 36.4 0 66.1 29.8 66.1 66.1 v 29.7 c 0 36.3 -29.8 66.1 -66.1 66.1 Z" fill="#f4ea2a" p-id="50526"></path><path d="M 822.9 129.2 H 199.8 c -77.2 0 -140.4 63.2 -140.4 140.4 v 487.2 c 0 77.2 63.2 140.4 140.4 140.4 h 623.1 c 77.2 0 140.4 -63.2 140.4 -140.4 V 269.6 c 0 -77.2 -63.2 -140.4 -140.4 -140.4 Z m 80.4 177 H 760.4 L 864.6 201 c 5.4 3.3 10.4 7.3 15 11.8 c 15.3 15.3 23.7 35.4 23.7 56.8 v 36.6 Z m -673.3 0 l 104 -117 h 61.3 l -109.1 117 H 230 Z m 247.4 -117 h 169.2 L 532 306.2 H 368.3 l 109.1 -117 Z m 248.8 0 h 65.6 L 676 306.2 h -60 l 112.5 -114.8 l -2.3 -2.2 Z M 143 212.9 c 15.3 -15.3 35.4 -23.7 56.8 -23.7 h 53.9 l -104 117 h -30.4 v -36.5 c 0.1 -21.4 8.5 -41.5 23.7 -56.8 Z m 736.6 600.7 c -15.3 15.3 -35.4 23.7 -56.8 23.7 h -623 c -21.3 0 -41.5 -8.4 -56.8 -23.7 c -15.3 -15.3 -23.7 -35.4 -23.7 -56.8 V 366.2 h 783.9 v 390.6 c 0.1 21.3 -8.3 41.5 -23.6 56.8 Z" fill="#45484c" p-id="50527"></path><path d="M 400.5 770.6 V 430.9 L 534.1 508 c 14.3 8.3 19.3 26.6 11 41 c -8.3 14.3 -26.6 19.3 -41 11 l -43.6 -25.2 v 131.8 l 114.1 -65.9 l -7.5 -4.3 c -14.3 -8.3 -19.3 -26.6 -11 -41 c 8.3 -14.3 26.6 -19.3 41 -11 l 97.5 56.3 l -294.1 169.9 Z" fill="#33cc99" p-id="50528"></path></svg>