<?xml version="1.0" standalone="no"?><!DOCTYPE svg PUBLIC "-//W3C//DTD SVG 1.1//EN" "http://www.w3.org/Graphics/SVG/1.1/DTD/svg11.dtd"><svg t="1615812297850" class="icon" viewBox="0 0 1024 1024" version="1.1" xmlns="http://www.w3.org/2000/svg" p-id="53932" xmlns:xlink="http://www.w3.org/1999/xlink" width="120" height="120"><defs><style type="text/css"></style></defs><path d="M105.4208 316.16l106.8032 106.9056-106.8032 106.8032v-213.7088z m157.696 106.5984l-157.696 157.7984v347.8528h831.1808v-505.6512h-673.4848z m498.9952 340.3776h-461.7216v-53.4528h461.7216v53.4528z m0-122.7776h-461.7216v-53.3504h461.7216v53.3504z m162.304-368.9472l-32.256-175.9232-804.6592 147.6608 153.6 153.7024z m-88.4736-133.0176l46.08 79.36 5.12 27.9552-98.2016 18.0224-61.1328-105.472z m-221.0816 40.5504l61.1328 105.472-108.2368 19.8656-61.0304-105.472z m-221.0816 40.5504l61.1328 105.472-108.2368 19.8656-61.0304-105.472z" p-id="53933" fill="#4ead87"></path></svg>