<?xml version="1.0" standalone="no"?><!DOCTYPE svg PUBLIC "-//W3C//DTD SVG 1.1//EN" "http://www.w3.org/Graphics/SVG/1.1/DTD/svg11.dtd"><svg t="1615812375856" class="icon" viewBox="0 0 1024 1024" version="1.1" xmlns="http://www.w3.org/2000/svg" p-id="56342" xmlns:xlink="http://www.w3.org/1999/xlink" width="120" height="120"><defs><style type="text/css"></style></defs><path d="M581.12 581.7344m-219.5968 0a219.5968 219.5968 0 1 0 439.1936 0 219.5968 219.5968 0 1 0-439.1936 0Z" fill="#DAA7FC" p-id="56343"></path><path d="M870.0416 342.0672a25.7024 25.7024 0 0 1-22.4768-13.2608 381.10208 381.10208 0 0 0-34.2528-51.8144 25.63072 25.63072 0 0 1 4.352-35.9424 25.59488 25.59488 0 0 1 35.9424 4.352c14.4896 18.432 27.5456 38.1952 38.8096 58.7264 6.8096 12.3904 2.304 27.9552-10.0864 34.7648-3.8912 2.1504-8.0896 3.1744-12.288 3.1744zM512 415.3856c-54.6304 0-99.072-44.4416-99.072-99.072 0-54.6304 44.4416-99.072 99.072-99.072s99.072 44.4416 99.072 99.072c0 54.6816-44.4416 99.072-99.072 99.072z m0-146.8928c-26.368 0-47.872 21.4528-47.872 47.872 0 26.368 21.4528 47.872 47.872 47.872s47.872-21.4528 47.872-47.872c0-26.4192-21.504-47.872-47.872-47.872zM512 801.1776c-54.6304 0-99.072-44.4416-99.072-99.072s44.4416-99.072 99.072-99.072 99.072 44.4416 99.072 99.072-44.4416 99.072-99.072 99.072z m0-146.8928c-26.368 0-47.872 21.4528-47.872 47.872s21.4528 47.872 47.872 47.872 47.872-21.4528 47.872-47.872-21.504-47.872-47.872-47.872zM704.9216 608.3072c-54.6304 0-99.072-44.4416-99.072-99.072 0-54.6304 44.4416-99.072 99.072-99.072s99.072 44.4416 99.072 99.072c-0.0512 54.6304-44.4928 99.072-99.072 99.072z m0-146.944c-26.368 0-47.872 21.4528-47.872 47.872s21.4528 47.872 47.872 47.872c26.368 0 47.872-21.4528 47.872-47.872s-21.504-47.872-47.872-47.872zM319.1296 608.3072c-54.6304 0-99.072-44.4416-99.072-99.072 0-54.6304 44.4416-99.072 99.072-99.072s99.072 44.4416 99.072 99.072c-0.0512 54.6304-44.4928 99.072-99.072 99.072z m0-146.944c-26.368 0-47.872 21.4528-47.872 47.872s21.4528 47.872 47.872 47.872 47.872-21.4528 47.872-47.872-21.504-47.872-47.872-47.872z" fill="#474747" p-id="56344"></path><path d="M876.9024 895.8464h-160.6656c136.6016-73.1648 229.7344-217.2928 229.7344-382.7712 0-45.4656-7.0144-90.3168-20.8384-133.1712a25.6256 25.6256 0 0 0-32.2048-16.5376 25.6256 25.6256 0 0 0-16.5376 32.2048 382.70976 382.70976 0 0 1 18.3808 117.504c0 211.0464-171.7248 382.7712-382.7712 382.7712-211.0464 0-382.7712-171.7248-382.7712-382.7712 0-211.0464 171.7248-382.7712 382.7712-382.7712 88.4224 0 171.52 29.2864 240.1792 84.736 11.008 8.8576 27.136 7.168 35.9936-3.84 8.8576-11.008 7.168-27.136-3.84-35.9936-76.8-61.952-173.4656-96.0512-272.3328-96.0512-239.3088 0-433.9712 194.6624-433.9712 433.9712s194.6624 433.9712 433.9712 433.9712c2.048 0 3.9936-0.1024 6.0416-0.1536 0.512 0.0512 0.9728 0.1536 1.536 0.1536h357.3248c14.1312 0 25.6-11.4688 25.6-25.6s-11.4688-25.6512-25.6-25.6512z" fill="#474747" p-id="56345"></path></svg>