<?xml version="1.0" standalone="no"?><!DOCTYPE svg PUBLIC "-//W3C//DTD SVG 1.1//EN" "http://www.w3.org/Graphics/SVG/1.1/DTD/svg11.dtd"><svg t="1615810962951" class="icon" viewBox="0 0 1024 1024" version="1.1" xmlns="http://www.w3.org/2000/svg" p-id="47407" xmlns:xlink="http://www.w3.org/1999/xlink" width="120" height="120"><defs><style type="text/css"></style></defs><path d="M1003.52 762.88c0-2.56 0-2.56 0 0v-10.24V174.08c0-84.48-51.2-145.92-135.68-161.28 0 0-2.56 0-2.56-2.56H138.24h-5.12c-5.12 2.56-12.8 5.12-20.48 5.12C48.64 35.84 0 94.72 0 163.84v696.32c0 87.04 69.12 156.16 156.16 156.16H844.8c56.32 0 97.28-23.04 130.56-69.12 20.48-28.16 28.16-61.44 28.16-94.72 2.56-30.72 0-61.44 0-89.6z m-207.36 84.48c0-12.8 7.68-23.04 15.36-23.04 10.24 0 17.92 10.24 17.92 23.04s-7.68 23.04-17.92 23.04c-7.68 0-15.36-10.24-15.36-23.04z m20.48 89.6c-12.8-10.24-12.8-30.72 0-40.96 10.24-10.24 23.04-20.48 30.72-33.28 10.24-12.8 25.6-12.8 35.84 0 10.24 12.8 20.48 25.6 33.28 35.84 7.68 7.68 10.24 20.48 5.12 30.72-5.12 10.24-12.8 12.8-25.6 12.8h-7.68c-15.36-5.12-30.72-5.12-46.08-2.56-7.68 2.56-17.92 2.56-25.6-2.56z m15.36-122.88c0-15.36 7.68-23.04 17.92-23.04 7.68 0 12.8 10.24 12.8 23.04s-7.68 23.04-15.36 23.04-15.36-10.24-15.36-23.04z m46.08-12.8c2.56-5.12 10.24-7.68 17.92-5.12 7.68 2.56 12.8 15.36 12.8 23.04 0 2.56-2.56 7.68-2.56 10.24-5.12 7.68-10.24 12.8-20.48 10.24-10.24-2.56-10.24-10.24-10.24-17.92-5.12-10.24 0-15.36 2.56-20.48z m38.4 79.36c-12.8 0-17.92-7.68-17.92-20.48 0-15.36 5.12-23.04 15.36-23.04 10.24 0 17.92 10.24 17.92 23.04 2.56 12.8-2.56 20.48-15.36 20.48zM197.12 302.08c0-15.36 5.12-17.92 17.92-17.92h248.32c-5.12-7.68-7.68-15.36-12.8-23.04-2.56-5.12-7.68-12.8-10.24-17.92-5.12-5.12-7.68-12.8-12.8-20.48-5.12-7.68-2.56-15.36 5.12-20.48 15.36-10.24 33.28-20.48 48.64-30.72 10.24-5.12 17.92-5.12 23.04 5.12 10.24 17.92 23.04 38.4 33.28 58.88 5.12 5.12 7.68 10.24 10.24 17.92 5.12 10.24 12.8 20.48 17.92 30.72h212.48c17.92 0 23.04 2.56 23.04 23.04v48.64c0 10.24-5.12 15.36-15.36 15.36H716.8c-2.56 0-7.68-2.56-10.24 2.56-2.56 10.24-7.68 17.92-10.24 28.16-2.56 5.12-5.12 12.8-7.68 17.92-20.48 46.08-48.64 89.6-81.92 128-2.56 2.56-5.12 5.12-10.24 7.68-2.56 5.12-7.68 7.68-10.24 12.8-5.12 5.12-10.24 12.8-17.92 15.36 0 2.56 2.56 5.12 5.12 5.12 0 0 2.56 0 2.56 2.56 7.68 5.12 15.36 12.8 25.6 15.36h2.56c20.48 15.36 40.96 25.6 64 38.4 40.96 23.04 81.92 40.96 125.44 56.32 12.8 5.12 15.36 10.24 5.12 20.48-12.8 15.36-28.16 30.72-40.96 46.08-5.12 7.68-12.8 5.12-20.48 2.56-79.36-35.84-156.16-76.8-225.28-128-2.56-2.56-5.12-2.56-7.68-5.12-7.68 7.68-17.92 12.8-25.6 17.92-43.52 30.72-89.6 58.88-138.24 84.48-23.04 10.24-46.08 23.04-69.12 33.28-5.12 2.56-12.8 5.12-17.92-2.56-15.36-17.92-33.28-33.28-46.08-53.76-5.12-7.68-2.56-12.8 5.12-15.36 38.4-15.36 74.24-30.72 110.08-48.64 25.6-12.8 48.64-25.6 71.68-40.96h2.56c5.12-2.56 10.24-5.12 15.36-10.24 0 0 2.56 0 2.56-2.56h2.56c2.56-7.68 10.24-7.68 12.8-12.8 2.56 0 5.12-2.56 5.12-5.12l-38.4-38.4-2.56-2.56c-10.24-15.36-23.04-28.16-33.28-43.52-17.92-23.04-33.28-48.64-46.08-76.8-5.12-5.12-7.68-12.8-10.24-20.48-5.12-10.24-10.24-20.48-12.8-30.72H212.48c-12.8 0-17.92-5.12-17.92-17.92 2.56-15.36 2.56-33.28 2.56-48.64z" fill="#1EBF56" p-id="47408"></path><path d="M396.8 396.8c2.56 5.12 5.12 10.24 7.68 12.8 25.6 46.08 58.88 84.48 97.28 120.32 2.56 0 2.56-2.56 5.12-2.56 5.12-5.12 10.24-10.24 15.36-12.8l2.56-2.56 10.24-10.24c28.16-30.72 51.2-61.44 71.68-97.28v-2.56c2.56-2.56 2.56-5.12 5.12-10.24 0-2.56 2.56-2.56 2.56-5.12 0-5.12 5.12-7.68 5.12-12.8v-5.12h-232.96s0 2.56 2.56 2.56c0 10.24 5.12 17.92 7.68 25.6zM860.16 911.36v-7.68-20.48c0-2.56 0-7.68-5.12-7.68s-5.12 2.56-5.12 7.68c0 5.12-2.56 7.68-7.68 7.68-5.12 0-10.24 0-12.8 5.12-5.12 5.12-7.68 17.92-2.56 25.6 5.12 7.68 17.92 12.8 30.72 7.68 7.68-5.12 0-12.8 2.56-17.92z m-15.36 7.68c-7.68 0-10.24-2.56-10.24-10.24 0-7.68 2.56-10.24 10.24-10.24 10.24 0 5.12 7.68 7.68 10.24-2.56 5.12 0 10.24-7.68 10.24zM880.64 926.72c17.92 0 17.92 0 17.92-17.92V896c0-2.56 0-5.12-5.12-5.12s-5.12 0-5.12 5.12v15.36c0 5.12 0 7.68-5.12 7.68s-7.68 0-7.68-7.68V896c0-2.56 0-5.12-5.12-5.12s-5.12 2.56-5.12 5.12v15.36c0 12.8 2.56 15.36 15.36 15.36z" fill="#1EBF56" p-id="47409"></path></svg>