<?xml version="1.0" standalone="no"?><!DOCTYPE svg PUBLIC "-//W3C//DTD SVG 1.1//EN" "http://www.w3.org/Graphics/SVG/1.1/DTD/svg11.dtd"><svg t="1615810085252" class="icon" viewBox="0 0 1024 1024" version="1.1" xmlns="http://www.w3.org/2000/svg" p-id="42555" xmlns:xlink="http://www.w3.org/1999/xlink" width="120" height="120"><defs><style type="text/css"></style></defs><path d="M488.96 0H255.573333a24.32 24.32 0 0 0-23.04 25.6V298.666667a23.04 23.04 0 0 0 34.133334 22.613333l101.546666-60.586667a7.68 7.68 0 0 1 8.533334 0l101.546666 61.866667a23.04 23.04 0 0 0 33.706667-23.893333V25.6a24.32 24.32 0 0 0-23.04-25.6z" fill="#D3CBB3" p-id="42556"></path><path d="M950.186667 27.306667A92.586667 92.586667 0 0 0 884.48 0h-290.56a102.826667 102.826667 0 0 1 3.413333 25.6V298.666667a110.08 110.08 0 0 1-55.893333 98.56 105.386667 105.386667 0 0 1-107.52 0l-61.44-39.253334-61.44 37.546667a107.52 107.52 0 0 1-55.466667 15.36 104.533333 104.533333 0 0 1-51.626666-13.226667A112.213333 112.213333 0 0 1 147.2 298.666667V25.6a102.826667 102.826667 0 0 1 3.413333-25.6h-11.093333A93.44 93.44 0 0 0 46.506667 93.013333v837.973334A93.44 93.44 0 0 0 139.52 1024h744.96a93.44 93.44 0 0 0 93.013333-93.013333V93.013333a92.586667 92.586667 0 0 0-27.306666-65.706666z m-205.653334 810.666666H558.506667a46.933333 46.933333 0 0 1 0-93.44h186.026666a46.933333 46.933333 0 0 1 0 93.44z" fill="#907C40" p-id="42557"></path></svg>