<?xml version="1.0" standalone="no"?><!DOCTYPE svg PUBLIC "-//W3C//DTD SVG 1.1//EN" "http://www.w3.org/Graphics/SVG/1.1/DTD/svg11.dtd"><svg t="1615799400226" class="icon" viewBox="0 0 1024 1024" version="1.1" xmlns="http://www.w3.org/2000/svg" p-id="4877" xmlns:xlink="http://www.w3.org/1999/xlink" width="120" height="120"><defs><style type="text/css"></style></defs><path d="M894.976 1015.808H130.048c-67.584 0-122.88-55.296-122.88-122.88V126.976c0-67.584 55.296-122.88 122.88-122.88h765.952c67.584 0 122.88 55.296 122.88 122.88v765.952c-1.024 67.584-56.32 122.88-123.904 122.88z" fill="#FFFFFF" p-id="4878"></path><path d="M645.12 908.288c-178.176 47.104-314.368-13.312-409.6-103.424-64.512-60.416-104.448-132.096-129.024-218.112-21.504-73.728-19.456-153.6-19.456-232.448 0-40.96 24.576-133.12 31.744-169.984C67.584 263.168 7.168 407.552 7.168 506.88 7.168 785.408 233.472 1011.712 512 1011.712c123.904 0 260.096-94.208 325.632-190.464-125.952 57.344-104.448 64.512-192.512 87.04z" fill="#643B98" p-id="4879"></path><path d="M815.104 73.728C757.76 39.936 693.248 17.408 623.616 8.192 394.24-21.504 134.144 126.976 109.568 355.328 218.112 142.336 384 60.416 582.656 86.016 645.12 94.208 704.512 112.64 757.76 141.312l57.344-67.584z" fill="#643B98" p-id="4880"></path><path d="M598.016 797.696c-1.024 1.024-2.048 1.024-3.072 3.072-2.048 3.072-3.072 10.24-5.12 14.336-1.024 2.048-8.192 11.264-8.192 13.312s2.048 4.096 5.12 6.144c-13.312 2.048-25.6 4.096-38.912 5.12 2.048-3.072 3.072-6.144-5.12-6.144 2.048-6.144 7.168-9.216 9.216-14.336 1.024-3.072 0-3.072 1.024-6.144 3.072-9.216 2.048-6.144 0-13.312 0-1.024-1.024-1.024-1.024-2.048H363.52V467.968l-6.144-6.144c-9.216-11.264-18.432-23.552-26.624-35.84-3.072-5.12-2.048-7.168-7.168-12.288-5.12-4.096-10.24-6.144-14.336-10.24-16.384-14.336-19.456-34.816-17.408-54.272 1.024-7.168 3.072-12.288 2.048-18.432-1.024-5.12-4.096-10.24-8.192-14.336-1.024-2.048-5.12-7.168-5.12-7.168-3.072-6.144-6.144-12.288-12.288-16.384-3.072-3.072-12.288-10.24-20.48-15.36 36.864-46.08 84.992-81.92 140.288-104.448 1.024 3.072 2.048 6.144 3.072 8.192 5.12 7.168 9.216 6.144 17.408 8.192-1.024 10.24-13.312 10.24-20.48 9.216-10.24-1.024-19.456-5.12-28.672 4.096 5.12 3.072 17.408 13.312 15.36 2.048 9.216-1.024 18.432-1.024 27.648 1.024 3.072 1.024 15.36 5.12 19.456 3.072 1.024-1.024 3.072-7.168 4.096-10.24-2.048 0-5.12-1.024-8.192-1.024 6.144-7.168 12.288-2.048 19.456 2.048-8.192 5.12-3.072 17.408 5.12 7.168 7.168-8.192-2.048-14.336-10.24-19.456 9.216-11.264 14.336-11.264 22.528 1.024 1.024-7.168 7.168-5.12 14.336-4.096v-2.048c-3.072 0-6.144-2.048-9.216-1.024 6.144-10.24 2.048-13.312 11.264-16.384 7.168-3.072 28.672 0 30.72-7.168-14.336 3.072-32.768 3.072-46.08 10.24-6.144 3.072-13.312 12.288-18.432 6.144-6.144-6.144 4.096-15.36 9.216-18.432h-1.024c23.552-5.12 48.128-7.168 72.704-7.168 16.384 0 31.744 1.024 47.104 3.072-5.12 3.072-1.024 5.12-5.12 7.168-7.168 5.12-20.48 10.24-29.696 13.312 11.264 0 38.912 10.24 44.032-5.12-3.072-1.024-7.168-1.024-11.264-2.048 7.168-5.12 14.336-8.192 22.528-11.264 71.68 14.336 136.192 50.176 184.32 101.376H768c-13.312 1.024-22.528 1.024-33.792 8.192-5.12 3.072-7.168 7.168-13.312 9.216-5.12 1.024-10.24 0-15.36 2.048-18.432 6.144-15.36 44.032-38.912 38.912-11.264-3.072-18.432-15.36-24.576-24.576-5.12-7.168-14.336-14.336-7.168-23.552-3.072 1.024-6.144 0-8.192 1.024 3.072-8.192 16.384-7.168 18.432-11.264 5.12-10.24-14.336-11.264-19.456-13.312 6.144-7.168 10.24 2.048 16.384 1.024 6.144-2.048-3.072-10.24-7.168-11.264-1.024-1.024-23.552 6.144-11.264-5.12-15.36-10.24-31.744-20.48-48.128-30.72-3.072 11.264 21.504 18.432 28.672 21.504-1.024 5.12-9.216 11.264-14.336 9.216-5.12-2.048-3.072-10.24-11.264-10.24-6.144 13.312 12.288 9.216 13.312 17.408 2.048 9.216-6.144 5.12-10.24 5.12-1.024 0-7.168-6.144-7.168-2.048-1.024 6.144 10.24 3.072 10.24 9.216-11.264 1.024-18.432-4.096-27.648-10.24-11.264-7.168-16.384-7.168-30.72-7.168 4.096-2.048 10.24-3.072 13.312-6.144l10.24-10.24c2.048-7.168 0-6.144-7.168-11.264-6.144-4.096-13.312-11.264-20.48-13.312-26.624-5.12-8.192 23.552-27.648 27.648h1.024-1.024c-5.12 0-13.312-1.024-16.384 1.024-2.048 2.048-2.048 9.216-5.12 11.264-4.096 5.12-10.24 5.12-15.36 9.216-5.12 3.072-15.36 11.264-18.432 16.384-10.24 20.48 23.552 26.624 36.864 32.768 6.144 3.072 23.552 6.144 26.624 10.24 4.096 6.144-3.072 11.264 5.12 15.36 3.072 1.024 9.216 2.048 11.264-1.024 4.096-5.12-2.048-6.144-2.048-10.24-2.048-10.24 1.024-6.144 6.144-10.24 10.24-7.168 8.192-8.192 4.096-20.48-2.048-6.144-8.192-21.504-2.048-25.6 7.168-5.12 23.552 3.072 28.672 3.072 6.144 1.024 10.24 10.24 14.336 14.336 2.048 2.048 7.168 7.168 11.264 7.168 6.144-1.024 4.096-7.168 7.168-9.216 10.24-7.168 13.312 2.048 17.408 12.288 4.096 9.216 7.168 13.312 14.336 18.432 3.072 3.072 17.408 13.312 15.36 18.432-1.024 4.096-16.384 10.24-21.504 11.264-15.36 5.12-45.056-8.192-48.128 16.384 6.144-2.048 23.552-16.384 28.672-10.24 2.048 3.072-2.048 7.168-1.024 10.24 3.072 9.216 10.24 6.144 17.408 5.12-1.024 1.024-1.024 1.024-2.048 1.024 10.24-5.12 9.216-4.096 13.312-12.288 2.048-3.072 3.072-9.216 6.144-11.264 7.168-7.168 8.192-2.048 13.312 3.072 1.024 1.024 12.288 17.408 8.192 16.384-13.312-2.048-25.6-2.048-35.84 5.12-6.144 4.096-12.288 10.24-19.456 12.288-2.048 1.024-15.36 2.048-13.312-1.024 2.048-3.072 10.24-5.12 13.312-9.216-9.216-3.072-15.36 4.096-22.528 9.216-5.12 2.048-7.168 6.144-10.24 10.24h326.656c-50.176-153.6-195.584-264.192-367.616-264.192-217.088 0-393.216 176.128-393.216 393.216s176.128 392.192 392.192 392.192c94.208 0 180.224-32.768 247.808-88.064H598.016z" fill="#2F82B9" p-id="4881"></path><path d="M340.992 428.032c-1.024-1.024 3.072 10.24 3.072 10.24 4.096 7.168 10.24 14.336 15.36 21.504 1.024 2.048 2.048 3.072 3.072 5.12v-17.408c-7.168-9.216-9.216-17.408-21.504-19.456zM712.704 757.76h-91.136V581.632c0-51.2-18.432-76.8-55.296-76.8-17.408 0-31.744 7.168-44.032 20.48-11.264 13.312-17.408 30.72-17.408 52.224V757.76h-92.16V441.344h92.16V491.52h1.024c23.552-38.912 57.344-57.344 101.376-57.344 69.632 0 104.448 43.008 104.448 130.048l1.024 193.536z m71.68-165.888l112.64-150.528h-80.896L727.04 573.44c-3.072 5.12-6.144 10.24-9.216 16.384H716.8v12.288h1.024c3.072 7.168 6.144 13.312 8.192 16.384l95.232 138.24h84.992c1.024 0-121.856-164.864-121.856-164.864z m136.192-93.184c0-15.36 5.12-27.648 13.312-36.864 9.216-9.216 20.48-14.336 34.816-14.336s26.624 5.12 35.84 14.336c9.216 10.24 13.312 22.528 13.312 36.864 0 15.36-5.12 27.648-14.336 36.864-9.216 10.24-20.48 15.36-34.816 15.36s-25.6-5.12-34.816-15.36c-9.216-9.216-13.312-21.504-13.312-36.864z m24.576 257.024V574.464h52.224v181.248h-52.224z" fill="#643B98" p-id="4882"></path></svg>