<?xml version="1.0" standalone="no"?><!DOCTYPE svg PUBLIC "-//W3C//DTD SVG 1.1//EN" "http://www.w3.org/Graphics/SVG/1.1/DTD/svg11.dtd"><svg t="1615810392776" class="icon" viewBox="0 0 1024 1024" version="1.1" xmlns="http://www.w3.org/2000/svg" p-id="44552" width="120" height="120" xmlns:xlink="http://www.w3.org/1999/xlink"><defs><style type="text/css"></style></defs><path d="M548.113 1024H30.106V286.447a68.267 68.267 0 0 1 41.984-63.01L608.393 0v273.476l351.914 190.26c20.685 11.195 33.587 32.767 33.587 56.32V1024h-445.78zM929.86 520.055L612.147 348.297v611.669H929.86V520.124zM356.966 768a6.827 6.827 0 0 0-6.826 6.827v114.346a6.827 6.827 0 0 0 6.826 6.827h114.279a6.827 6.827 0 0 0 6.826-6.827V774.827a6.827 6.827 0 0 0-6.826-6.827H356.966z m0-192.034a6.827 6.827 0 0 0-6.826 6.827v114.346a6.827 6.827 0 0 0 6.826 6.827h114.279a6.827 6.827 0 0 0 6.826-6.827V582.861a6.827 6.827 0 0 0-6.826-6.827H356.966z m0-191.966a6.827 6.827 0 0 0-6.826 6.827v114.346a6.827 6.827 0 0 0 6.826 6.827h114.279a6.827 6.827 0 0 0 6.826-6.827V390.827a6.827 6.827 0 0 0-6.826-6.827H356.966zM164.932 768a6.827 6.827 0 0 0-6.826 6.827v114.346a6.827 6.827 0 0 0 6.826 6.827H279.28a6.827 6.827 0 0 0 6.827-6.827V774.827a6.827 6.827 0 0 0-6.827-6.827H164.932z m0-192.034a6.827 6.827 0 0 0-6.826 6.827v114.346a6.827 6.827 0 0 0 6.826 6.827H279.28a6.827 6.827 0 0 0 6.827-6.827V582.861a6.827 6.827 0 0 0-6.827-6.827H164.932z m0-191.966a6.827 6.827 0 0 0-6.826 6.827v114.346a6.827 6.827 0 0 0 6.826 6.827H279.28a6.827 6.827 0 0 0 6.827-6.827V390.827a6.827 6.827 0 0 0-6.827-6.827H164.932zM708.95 576.034h114.347a6.827 6.827 0 0 1 6.827 6.827v114.278a6.827 6.827 0 0 1-6.827 6.827H708.949a6.827 6.827 0 0 1-6.826-6.827V582.861a6.827 6.827 0 0 1 6.826-6.827z m0 191.966h114.347a6.827 6.827 0 0 1 6.827 6.827v114.346a6.827 6.827 0 0 1-6.827 6.827H708.949a6.827 6.827 0 0 1-6.826-6.827V774.827a6.827 6.827 0 0 1 6.826-6.827z" p-id="44553" fill="#b78e21"></path></svg>