<?xml version="1.0" standalone="no"?><!DOCTYPE svg PUBLIC "-//W3C//DTD SVG 1.1//EN" "http://www.w3.org/Graphics/SVG/1.1/DTD/svg11.dtd"><svg t="1614338477613" class="icon" viewBox="0 0 1024 1024" version="1.1" xmlns="http://www.w3.org/2000/svg" p-id="2848" xmlns:xlink="http://www.w3.org/1999/xlink" width="120" height="120"><defs><style type="text/css"></style></defs><path d="M199.111111 0h625.777778c109.795556 0 199.111111 89.315556 199.111111 199.111111v625.777778c0 109.795556-89.315556 199.111111-199.111111 199.111111H199.111111c-109.795556 0-199.111111-89.315556-199.111111-199.111111V199.111111C0 89.315556 89.315556 0 199.111111 0z" fill="#FFFFFF" p-id="2849"></path><path d="M327.68 143.36c25.6-2.844444 51.768889 0.568889 75.662222 9.102222 52.906667 17.066667 104.675556 38.684444 154.737778 63.146667 84.195556 41.528889 164.977778 89.884444 242.346667 143.36 34.133333 22.755556 65.991111 48.924444 94.435555 78.506667 15.928889 18.204444 28.444444 40.96 26.168889 65.422222-3.413333 29.582222-23.893333 52.906667-44.373333 72.817778-84.195556 79.644444-176.924444 150.186667-276.48 209.92-51.2 30.72-105.813333 55.751111-162.133334 75.662222-36.408889 12.515556-74.524444 23.324444-113.208888 19.342222-23.324444-1.706667-44.942222-11.946667-60.871112-28.444444-13.084444-15.36-21.617778-33.564444-25.031111-52.906667l1.137778-1.706667c17.066667-3.982222 33.564444-9.102222 50.631111-13.084444 71.111111-18.204444 139.946667-44.373333 205.368889-77.368889 70.542222-34.133333 137.671111-73.955556 201.386667-119.466667 20.48-15.36 43.235556-30.72 55.182222-55.182222 7.964444-17.635556 6.826667-38.115556-3.982222-54.613333-12.515556-19.342222-29.013333-35.271111-48.355556-48.355556-21.617778-15.36-44.373333-29.582222-67.697778-42.666667-44.373333-26.737778-91.022222-49.493333-138.24-72.248888-54.044444-26.168889-109.795556-48.355556-167.253333-66.56-25.6-7.395556-51.2-15.36-76.8-22.186667 2.844444-11.377778 6.257778-22.755556 10.808889-33.564445 13.084444-26.168889 37.546667-44.942222 66.56-48.924444z" fill="#10ABF2" p-id="2850"></path><path d="M168.96 231.537778c23.893333-11.377778 51.768889-7.964444 76.8-3.413334-7.395556 33.564444-11.946667 67.697778-17.066667 101.831112-0.568889 14.791111-2.275556 29.013333-3.982222 43.804444-2.844444 18.204444-2.275556 36.977778-5.12 55.182222-0.568889 21.048889-1.706667 42.666667-2.275555 64.284445-2.275556 20.48-1.137778 41.528889-1.137778 62.008889 0 30.72-0.568889 62.008889 1.706666 92.728888 1.706667 47.217778 5.12 93.866667 11.377778 140.515556v6.826667c-23.893333 4.551111-51.768889 7.964444-73.955555-6.826667s-27.875556-42.097778-33.564445-65.991111c-13.084444-76.8-19.911111-154.737778-19.342222-233.244445 1.137778-40.96 5.12-81.351111 10.808889-121.742222 4.551111-32.995556 11.946667-65.422222 22.755555-97.28 5.688889-16.497778 17.635556-30.72 32.995556-38.684444z" fill="#FF8F21" p-id="2851"></path><path d="M246.897778 225.848889l5.12 0.568889c25.6 6.826667 51.2 14.791111 76.8 22.186666 57.457778 18.204444 113.208889 40.96 167.253333 67.128889 46.648889 23.324444 93.297778 46.08 138.24 72.248889 23.324444 13.084444 46.08 27.306667 67.697778 42.666667 19.342222 12.515556 35.271111 29.013333 48.355555 47.786667 10.808889 16.497778 11.946667 36.977778 3.982223 54.613333-11.377778 23.893333-34.702222 39.253333-55.182223 55.182222-63.715556 45.511111-130.844444 85.333333-201.386666 119.466667-65.991111 32.995556-134.826667 58.595556-205.937778 77.368889-17.066667 3.982222-33.564444 9.102222-50.631111 13.084444l-9.671111 1.706667c-0.568889-3.982222-1.137778-7.964444-1.706667-12.515556-6.257778-46.648889-9.671111-93.866667-11.377778-140.515555-3.413333-30.72-2.275556-62.008889-2.275555-92.728889-0.568889-20.48 0-41.528889 1.137778-62.008889 0.568889-21.048889 1.706667-42.666667 2.275555-64.284445 2.844444-18.204444 2.275556-36.977778 5.12-55.182222 1.706667-14.222222 3.413333-29.013333 3.982222-43.804444 5.12-34.133333 9.102222-68.266667 17.066667-101.831111l0.568889-2.275556 0.568889 1.137778z m96.711111 122.311111c-9.102222 3.413333-14.791111 11.946667-14.222222 21.048889-0.568889 13.653333-0.568889 27.306667 0.568889 40.96 0.568889 40.391111-0.568889 81.351111 0.568888 121.742222v108.088889c-1.137778 9.102222 2.844444 18.204444 10.808889 23.324444 9.102222 2.275556 19.342222 0.568889 26.737778-5.688888 65.422222-43.804444 131.413333-87.608889 196.835556-131.413334 7.964444-5.688889 17.066667-14.222222 15.928889-25.6-1.706667-10.24-8.533333-19.342222-18.204445-23.893333L362.951111 353.28c-5.688889-3.982222-12.515556-5.688889-19.342222-5.12z" fill="#7DE621" p-id="2852"></path><path d="M343.608889 348.16c6.826667-0.568889 13.653333 1.137778 19.342222 5.12l200.817778 124.017778c9.671111 4.551111 16.497778 13.084444 18.204444 23.893333 1.137778 10.808889-7.964444 19.342222-15.928889 25.6-65.422222 43.235556-131.413333 87.04-196.835555 130.844445-7.395556 5.688889-17.635556 7.964444-26.737778 5.688888-7.395556-5.12-11.377778-13.653333-10.808889-22.755555v-108.088889c-1.137778-40.391111 0-81.351111-0.568889-121.742222-1.137778-13.653333-1.706667-27.306667-1.137777-41.528889-1.137778-9.102222 5.12-17.635556 13.653333-21.048889z" fill="#FFFFFF" p-id="2853"></path></svg>