<?xml version="1.0" standalone="no"?><!DOCTYPE svg PUBLIC "-//W3C//DTD SVG 1.1//EN" "http://www.w3.org/Graphics/SVG/1.1/DTD/svg11.dtd"><svg t="1615911033139" class="icon" viewBox="0 0 1024 1024" version="1.1" xmlns="http://www.w3.org/2000/svg" p-id="7308" xmlns:xlink="http://www.w3.org/1999/xlink" width="120" height="120"><defs><style type="text/css"></style></defs><path d="M515.2256 257.2288c44.1344-2.56 88.32 3.584 130.0992 17.92 36.3008 12.288 69.9904 31.1808 99.3792 55.7056 26.368 21.8624 47.7184 49.152 62.6688 79.9232 9.6256 20.224 16.0768 42.0352 18.7392 64.3072 1.9968 16.9472 1.9968 34.5088-3.4816 50.8416a83.3024 83.3024 0 0 1-29.5424 40.6528c-17.92 13.5168-39.424 21.1968-60.928 26.7264-36.4544 9.0624-73.9328 12.4416-111.2576 15.5136-39.7312 3.072-79.5136 5.632-119.1936 9.216-26.7776 2.2016-53.5552 4.7104-80.4352 5.8368a443.392 443.392 0 0 1-72.3456-1.6896c-21.0432-2.6624-42.3424-7.7824-60.4672-19.2512a82.0736 82.0736 0 0 1-31.3344-36.0448c-8.9088-19.7632-10.8032-41.8816-9.9328-63.3344 1.3824-46.7968 18.2784-92.672 46.1824-130.048 33.6384-45.568 81.8688-79.2576 134.8608-98.4064a315.8528 315.8528 0 0 1 86.9888-17.8688z m-26.0608 81.0496a19.456 19.456 0 0 0-11.1104 5.0176 40.8576 40.8576 0 0 0-8.4992 14.848 173.8752 173.8752 0 0 0-8.192 42.496c-1.9456 24.4736-1.3312 49.152 1.9968 73.472 2.2016 15.0528 5.2736 30.208 11.6736 44.1344 3.1744 6.4512 7.2704 13.2096 14.08 16.2304 7.0144 2.6624 14.6944 1.536 21.8112 0.0512 15.2576-3.4816 29.6448-9.984 43.52-17.152a357.888 357.888 0 0 0 52.736-33.792c13.1584-10.4448 26.0608-21.504 36.0448-35.1744 4.5056-6.5536 9.3184-14.6432 6.7072-22.8864-3.328-9.216-10.6496-16.384-17.7152-23.04a269.3632 269.3632 0 0 0-44.1856-31.1296 319.8464 319.8464 0 0 0-58.5216-26.8288c-12.9536-4.0448-26.5728-7.936-40.3456-6.2464m170.0352 378.624c15.36-5.9392 30.3616-13.312 43.2128-23.7056 0.6144 20.8896-4.4544 41.7792-13.1072 60.7232l-0.8192-0.8192c-6.3488-6.656-13.5168-12.6976-18.944-20.2752a151.4496 151.4496 0 0 1-10.3424-15.872m-228.1984 37.4784c-0.9728-8.4992-2.8672-17.2544-0.768-25.7024 16.0256 4.9152 32.6144 7.7824 49.3056 9.3696-10.0352 17.5616-25.7536 31.232-42.9056 41.5744a167.168 167.168 0 0 0-1.3312-1.7408c-0.4608-7.9872-3.3792-15.5648-4.3008-23.5008" fill="#F6F8F9" p-id="7309"></path><path d="M545.3312 184.9344c18.2272-18.7904 40.8576-34.2016 66.5088-40.448 4.608-1.28 9.0624 1.28 13.4656 2.3552 33.7408 11.4176 63.744 31.7952 89.8048 55.7056 26.8288 25.2928 49.9712 54.272 68.6592 86.016 1.2288 2.048 2.5088 4.096 3.4304 6.2464-25.2928-27.7504-49.92-56.32-78.7968-80.4864a319.488 319.488 0 0 0-79.2064-48.128c-3.4304-1.28-6.5536-3.584-10.2912-3.84-25.7536 2.304-50.3808 11.4176-73.5744 22.5792m-287.5904-34.6112c47.7184 5.7344 95.1296 18.1248 137.5232 41.1648 3.072 1.792 6.4 3.2768 9.2672 5.4784-6.7072-1.536-13.1072-4.3008-19.712-6.144-35.2768-10.5472-72.0384-17.92-109.0048-16.7424-2.8672 0.2048-6.2976-0.256-8.3456 2.304-11.264 11.3664-19.4048 25.2928-26.9824 39.2704a642.048 642.048 0 0 0-39.7312 95.5904c-2.9696 8.6016-5.1712 17.408-7.9872 26.112 4.9152-59.5968 25.088-117.248 54.1696-169.1648 3.4304-6.0928 6.912-12.0832 10.8032-17.8688m169.8304 103.168c79.5648-27.0336 168.7552-22.2208 246.0672 10.1376 31.9488 13.4144 61.952 31.5904 88.1152 54.3744 27.4432 23.6544 49.664 52.7872 65.1264 85.5552 8.7552 18.8416 15.104 38.912 18.4832 59.392 4.5568 26.6752 4.0448 55.296-7.4752 80.2816-1.792 3.7888-3.4816 7.68-6.2976 10.8544-1.8944 4.864-5.632 8.704-8.8064 12.8-19.3024 22.5792-47.3088 35.584-75.3664 43.7248-40.448 11.52-82.5856 15.1552-124.3648 18.688-29.184 2.2528-58.4192 4.1472-87.552 6.5024-50.5344 3.9424-101.0176 9.8816-151.7568 9.216a307.9168 307.9168 0 0 1-61.6448-6.656 141.824 141.824 0 0 1-44.9536-18.0736 102.0416 102.0416 0 0 1-36.352-39.936c-11.008-21.4528-14.6432-45.8752-14.4384-69.7344 0.1536-50.8928 16.7936-101.376 45.9264-143.0528 37.376-53.7088 93.4912-93.2864 155.2896-114.0736z m87.6544 3.7376a315.8528 315.8528 0 0 0-86.9888 17.92c-52.992 19.0976-101.2736 52.7872-134.8608 98.304a231.1168 231.1168 0 0 0-46.1824 130.0992c-0.8704 21.504 1.024 43.5712 9.984 63.3856 6.5536 14.7456 17.5616 27.4432 31.2832 35.9936 18.1248 11.4688 39.424 16.5376 60.4672 19.2 24.0128 2.816 48.2816 2.8672 72.3456 1.6896 26.88-1.024 53.6576-3.584 80.4352-5.7856 39.68-3.6864 79.4112-6.144 119.1424-9.216 37.3248-3.072 74.8544-6.4512 111.2576-15.5136 21.504-5.5296 43.008-13.2096 60.928-26.7264 13.6192-10.1888 24.32-24.4224 29.5424-40.6528 5.5296-16.3328 5.5296-33.8944 3.4816-50.8416a209.2032 209.2032 0 0 0-18.7392-64.3072 240.7936 240.7936 0 0 0-62.6688-79.872 310.4768 310.4768 0 0 0-99.3792-55.7568 340.9408 340.9408 0 0 0-130.048-17.92" fill="#954607" p-id="7310"></path><path d="M489.1648 338.2784c13.7216-1.6384 27.3408 2.2016 40.3456 6.2464 20.4288 6.7584 39.8848 16.128 58.5216 26.8288 15.616 9.0624 30.72 19.1488 44.1856 31.232 7.0656 6.5536 14.336 13.6704 17.7152 23.04 2.6112 8.192-2.2016 16.2816-6.7072 22.8352-9.9328 13.6192-22.8352 24.7296-36.0448 35.1232a357.888 357.888 0 0 1-52.736 33.8432 190.6176 190.6176 0 0 1-43.52 17.152c-7.1168 1.4336-14.7968 2.56-21.76-0.1536-6.8096-3.0208-10.9056-9.728-14.08-16.2304-6.4-13.824-9.472-29.0816-11.6736-44.032a342.8864 342.8864 0 0 1-1.9968-73.5744c1.28-14.336 3.2768-28.8256 8.192-42.496a39.6288 39.6288 0 0 1 8.4992-14.7968 19.3024 19.3024 0 0 1 11.0592-5.0176m344.0128 216.2176c1.0752-0.768 2.048-2.048 3.5328-2.048a323.84 323.84 0 0 1 83.4048 7.5776c0.6144 4.3008 0.768 8.704 1.0752 13.056a299.52 299.52 0 0 1-4.0448 63.488 439.9104 439.9104 0 0 0-58.0096-61.5424c-8.448-7.1168-16.64-14.6432-25.9584-20.48m-698.3168 66.56a332.288 332.288 0 0 1 111.0016-30.208 148.6336 148.6336 0 0 1-7.3216 7.7312 421.632 421.632 0 0 0-87.8592 134.7584 261.7856 261.7856 0 0 1-42.0352-97.536c8.3968-5.5296 17.2032-10.3936 26.2144-14.7456m635.9552 32.256c20.3264 1.1776 40.448 5.9392 59.1872 13.824 21.7088 9.0112 41.4208 22.272 59.1872 37.5296 1.5872 1.536 3.6864 2.8672 4.096 5.2224a262.4 262.4 0 0 1-65.9456 82.3296c-3.9424-20.48-8.192-40.96-14.7456-60.8768-9.2672-28.1088-21.5552-56.0128-41.7792-78.0288m-70.3488 8.0896a10.3936 10.3936 0 0 1 15.7696 4.3008c2.4064 6.8608-1.3312 13.9264-5.376 19.3024 3.1744 27.2896-4.608 54.4768-15.6672 79.1552a126.5152 126.5152 0 0 1-52.3264-24.9856c-5.0176-3.6864-9.1648-8.3968-13.7216-12.544-45.568 11.264-92.672 15.4112-139.52 12.3904-12.1344 22.8352-32.6656 40.0384-55.04 52.3264a164.864 164.864 0 0 1-36.4032-77.2608c-4.864-3.8912-9.9328-8.192-12.1856-14.1824-0.8192-4.2496 2.816-8.0896 6.656-9.3696 3.8912-1.6384 9.4208-2.4576 12.288 1.4336 5.1712 6.5536 13.056 9.984 20.5824 13.1072 23.6544 9.216 49.152 12.3904 74.3424 13.7216A439.3472 439.3472 0 0 0 614.4 708.7616c22.1696-5.12 44.2368-12.0832 63.8976-23.7568 6.4-3.9424 12.9536-8.1408 17.3568-14.336 1.2288-3.1744 1.5872-7.168 4.8128-9.216z m-41.2672 55.4496c-6.656 2.56-13.5168 4.608-20.224 6.912 13.824 13.5168 30.7712 24.2688 49.5616 29.2864l0.8192 0.8192c8.6528-18.944 13.7216-39.8336 13.1072-60.7232a160.4096 160.4096 0 0 1-43.264 23.7056z m-250.7776 3.2256c5.0688 20.7872 13.6192 41.0112 26.9312 57.856l1.3312 1.7408c17.152-10.3936 32.9216-24.0128 42.9056-41.5744a251.7504 251.7504 0 0 1-49.3056-9.3696 149.3504 149.3504 0 0 1-21.8624-8.6528m-161.7408 3.6352a192.3072 192.3072 0 0 1 87.3984-44.288 178.176 178.176 0 0 0-19.3024 40.192c-13.6704 40.5504-17.3056 83.712-17.3056 126.2592a359.7824 359.7824 0 0 1-100.7104-61.44 230.4 230.4 0 0 1 49.92-60.7232" fill="#954607" p-id="7311"></path><path d="M545.3312 184.9344c23.1424-11.1616 47.8208-20.2752 73.6256-22.4768 3.6864 0.256 6.8608 2.6112 10.2912 3.84 28.6208 12.0832 55.296 28.3136 79.2064 48.128 28.8768 24.1664 53.504 52.736 78.7968 80.4864 8.0384 8.448 16.6912 16.2816 24.4224 24.9856 54.7328 59.4432 93.7984 134.4512 105.9328 214.7328 1.7408 12.8 3.3792 25.6 3.584 38.4512-0.3072-4.352-0.512-8.704-1.0752-13.056a324.0448 324.0448 0 0 0-83.4048-7.5776c-1.4848 0-2.4576 1.28-3.5328 2.048 9.3184 5.888 17.5104 13.4144 25.9584 20.48 21.4016 18.4832 40.5504 39.424 58.0096 61.5424-4.2496 25.5488-12.288 50.2784-23.8592 73.4208-0.4096-2.3552-2.5088-3.6864-4.096-5.2224a221.7472 221.7472 0 0 0-59.1872-37.5296 180.224 180.224 0 0 0-59.1872-13.824c20.224 22.016 32.512 49.92 41.7792 78.0288 6.5536 19.8656 10.8544 40.3456 14.7456 60.928l0.0512 0.1024c-39.5264 33.1776-86.9888 55.8592-136.2432 70.5024-64.5632 19.1488-132.4032 25.2928-199.5264 23.1424-66.304-2.4576-132.7616-14.4896-194.2016-39.8848v-0.2048c0-42.496 3.6864-85.7088 17.3056-126.2592 4.7104-14.1312 11.264-27.648 19.3024-40.192a192.3072 192.3072 0 0 0-87.3984 44.288c-19.968 17.2544-36.864 37.7856-49.9712 60.7232a287.1296 287.1296 0 0 1-46.0288-51.0976c20.3264-50.176 50.176-95.8976 87.8592-134.7584 2.56-2.5088 5.0688-5.0176 7.3216-7.7824a331.1104 331.1104 0 0 0-110.9504 30.208c-9.0112 4.352-17.8176 9.216-26.2144 14.7456a323.584 323.584 0 0 1 3.7888-141.5168 393.1136 393.1136 0 0 1 80.3328-157.0304c2.816-8.6528 5.0176-17.408 7.9872-26.0608 10.9568-32.7168 23.6544-64.9728 39.7312-95.5904 7.5776-13.9776 15.7184-27.9552 26.9824-39.2704 1.9968-2.56 5.4272-2.048 8.3456-2.304 36.9664-1.1776 73.728 6.1952 109.0048 16.7424 6.656 1.8432 13.0048 4.608 19.712 6.144 1.3312 0.4096 2.6624 1.28 4.096 0.6656a395.4688 395.4688 0 0 1 133.9904-12.4416l2.7136-0.256z m-117.76 68.608c-61.7984 20.736-117.9136 60.3136-155.2896 114.0224a253.0304 253.0304 0 0 0-45.9264 143.0528c-0.2048 23.8592 3.4304 48.2816 14.4384 69.6832a102.4 102.4 0 0 0 36.352 39.9872c13.6192 8.8576 29.184 14.336 44.9536 18.0224 20.1728 4.6592 40.96 6.1952 61.6448 6.7072 50.7392 0.6656 101.2736-5.2736 151.7568-9.216 29.184-2.3552 58.368-4.2496 87.552-6.5024 41.7792-3.5328 83.9168-7.1168 124.3648-18.688 28.0576-8.1408 56.064-21.1456 75.3664-43.776 3.1744-4.0448 6.912-7.8848 8.8064-12.7488 2.816-3.1744 4.5056-7.0656 6.2976-10.8544 11.4688-24.9856 11.9808-53.6064 7.4752-80.3328-3.4304-20.48-9.6768-40.448-18.4832-59.3408a258.6624 258.6624 0 0 0-65.1264-85.504 326.6048 326.6048 0 0 0-88.1152-54.4256c-77.312-32.3584-166.5024-37.2224-246.0672-10.1376z m272.896 407.9104c-3.2256 2.048-3.584 6.0416-4.9152 9.2672-4.4032 6.1952-11.008 10.3936-17.3568 14.336-19.6608 11.6736-41.728 18.5856-63.8976 23.7568a434.7904 434.7904 0 0 1-114.5344 10.0864c-25.1904-1.28-50.688-4.5568-74.3424-13.7216-7.5264-3.072-15.4112-6.5536-20.5824-13.1072-2.8672-3.8912-8.3968-3.072-12.288-1.4336-3.84 1.28-7.424 5.12-6.656 9.3696 2.304 5.9904 7.3216 10.24 12.1856 14.1824 5.2224 28.3136 17.5616 55.3984 36.4032 77.312 22.4256-12.288 42.9056-29.5424 55.04-52.3776a461.9264 461.9264 0 0 0 139.52-12.3904c4.5568 4.1984 8.6528 8.8576 13.7216 12.544 15.1552 12.3392 33.28 20.736 52.3264 24.9856 11.1104-24.6784 18.8928-51.8656 15.6672-79.1552 4.0448-5.376 7.8336-12.4928 5.376-19.3024-2.2016-6.144-10.5984-8.448-15.6672-4.352" fill="#FFC545" p-id="7312"></path><path d="M638.976 723.8656c6.7072-2.3552 13.568-4.352 20.224-6.912 3.2256 5.4272 6.4512 10.9056 10.3936 15.9232 5.376 7.5776 12.544 13.568 18.944 20.2752a114.5856 114.5856 0 0 1-49.5616-29.2864z m-230.5536-3.7376c7.0144 3.4816 14.3872 6.2976 21.8624 8.6016-2.1504 8.448-0.2048 17.2032 0.768 25.7024 0.8704 7.9872 3.84 15.5648 4.352 23.552a149.248 149.248 0 0 1-26.9824-57.856z" fill="#F3EBDE" p-id="7313"></path></svg>