<?xml version="1.0" standalone="no"?><!DOCTYPE svg PUBLIC "-//W3C//DTD SVG 1.1//EN" "http://www.w3.org/Graphics/SVG/1.1/DTD/svg11.dtd"><svg t="1615808329898" class="icon" viewBox="0 0 1024 1024" version="1.1" xmlns="http://www.w3.org/2000/svg" p-id="14160" xmlns:xlink="http://www.w3.org/1999/xlink" width="120" height="120"><defs><style type="text/css"></style></defs><path d="M821.6 551.5c-43.5-44.6-104.5-72.4-172-72.4-14 0-27.7 1.2-41 3.5V475c0-8-6.5-14.5-14.5-14.5h-290c-8 0-14.5 6.5-14.5 14.5v51.6c0 8 6.5 14.5 14.5 14.5h184.3c-48.1 43.5-78.3 106.3-78.3 176.1 0 79.2 38.9 149.3 98.7 192.6H179.4c-27.5 0-49.9-22.2-49.9-49.6V113.6c0-27.4 22.3-49.6 49.9-49.6h592.3c27.5 0 49.9 22.2 49.9 49.6v437.9zM304.1 274.7c-8 0-14.5 6.5-14.5 14.5v51.6c0 8 6.5 14.5 14.5 14.5H647c8 0 14.5-6.5 14.5-14.5v-51.6c0-8-6.5-14.5-14.5-14.5H304.1z" fill="#1296db" p-id="14161"></path><path d="M890.2 898.9c5.6 5.6 5.6 14.8 0 20.4l-36.5 36.5c-5.6 5.6-14.8 5.6-20.4 0l-94.9-94.9c-65.2 39.9-151.5 31.6-207.9-24.8-66.1-66.1-66.1-173.2 0-239.3s173.2-66.1 239.3 0c56.1 56.1 64.6 141.9 25.3 206.9l95.1 95.2zM713.7 780c35-35 35-91.9 0-126.9s-91.9-35-126.9 0-35 91.9 0 126.9 91.9 35 126.9 0z" fill="#1296db" p-id="14162"></path></svg>